<mxfile host="65bd71144e">
    <diagram id="npQN5GoH_DYZjj1VYNju" name="第 1 页">
        <mxGraphModel dx="1366" dy="726" grid="1" gridSize="10" guides="1" tooltips="1" connect="1" arrows="1" fold="1" page="1" pageScale="1" pageWidth="827" pageHeight="1169" math="0" shadow="0">
            <root>
                <mxCell id="0"/>
                <mxCell id="1" parent="0"/>
                <mxCell id="3" value="" style="shape=image;verticalLabelPosition=bottom;labelBackgroundColor=#ffffff;verticalAlign=top;aspect=fixed;imageAspect=0;image=data:image/png,iVBORw0KGgoAAAANSUhEUgAABXwAAAHVCAYAAABCLTNuAAAgAElEQVR4Aezd7ascV4Lnef9p/Xb6XYNZiqGW8dTWFuwisS+HsV8IZpph9lUZBBLNLgZ3DwXNIm9xC+2L6fKDwEgUI8l0Y6qR2lWlwq0ryZYlX8v3WpbuvWc58ZAZERmZeSIfIzI/F1KZGXky4pzv+cZD/vLo5Btv/vTnYd9ux8fHwQ0DDnCAAxzgAAc4wAEOcIADHOAAB6Y58Od/fRKOT14GfwjsCoHoc+Z1Qi72k78/D3/xXti7W2z3tGNCn5cfHR2F6u2NfQt7Y3v73EHq5mKDAxzgAAc4wAEOcIADHOAABziwfQe++NPhruR82oHAiED0OuX4so9hb9nmFD59K1MNe+NjgW/Ctxp960T12f6JXx/oAw5wgAMc4AAHOMABDnCAA7vtgMB3lBF6sEMEBL7zRy0P8dgu8DXCN+mbnCHKrc67fbGlf/UvBzjAAQ5wgAMc4AAHOLBJBwS+O5RyasqIgMBX4Luzc/tu8gRhWy5IOMABDnCAAxzgAAc4wAEOcIADw3NA4DvKCD3YIQICX4GvwNd0D0YDc4ADHOAABzjAAQ5wgAMc4AAH9tIBge8OpZyaMiIg8N2TwPcv/+onYd9uvlkd3jer+kyfcYADHOAABzjAAQ5wgAMc4MAmHRD4jjJCD3aIgMBX4LuzQfAmTxC25YKEAxzgAAc4wAEOcIADHOAABzgwPAcEvjuUcmrKiIDAV+Ar8N3gf9u5/vsfw0/+/jz8xXvzxRt6mdjO2N4uFzz4zL442ic+m/J/EU+7OK3sbKfxwYcDHOAABzjAAQ5wYNsOCHxHGaEHO0RA4Ds/d9v2sWeR7R8dHYXq7Y19m84htncRcOt8Twzr/s3f7kfYW4Z1sb2poS8+sy/09pFP6dG677t4us5jhHXP3gfwwYcDHOAABzjAAQ5wYB0OLBP4fvHZZ+GfnrSlhF+G25/+PnzR9lKY9lpcfjt88tmXre+KC7/47Hb49PffTH3dCwiUBLYW+N4PIXxbD1sfhBAefDu5fNpn/SuHIbw4rK9jWtlllq/jeLLudVbD3vhY4LvBUbzTOndfRvY2d7bY7mlMqsvxmX3xtq98mj6t63mqp1VnPZ7tLD74cIADHOAABzjAAQ4MwYFlAt8wCm+LsDYGttNuv/uXkGXDT/4lfNoMdeOyT/PweHao+034p9/dDrf/WMZ67hFoJ9CHwDcGt/Hvwf0Q/qIIgmP4m/39GMKV90Ioy5SLZ92vOgQewvGpWUeBbw9H+K4rqBrCepuCtj0fQjvWVcc2Hs1l69q29Y6/NWwy99wHFA5wgAMc4AAHOMABDuy+A8sFviGEP/6+ZdRt2yjePKytBcK/+5fwxe8/C58UYW8eds0b6du27lkxmdf2kcA2At+7P9ZJ3z0swt44rWlj5O+DIvBtyySM8J1+3BX4Cnx7NU9wykVS206+L8vwGYeu2+zzlH5QZvqJBxtsOMABDnCAAxzgAAeG6MDSgW+RcT3JgtvpI3zLqRiq00DE0byffPYv2ajdWhBcLitHBddytDwQLtdXe8kTBAoC2wh8s8/zlWC3Ono3hr9xqofrcWqH+FcEvs2QuHi1/W5GSLxIljDE45XAV+Ar8B3QD+OlHGQWOXh5T7cgOaUflPEhhgMc4AAHOMABDnCAA7vlwKKB7zjgbZvHd9oo3C/D7WJU78LTMvzx9+GT330WPp06R3B7VmbpfhHoS+CbTecwY4RvDHyvl/nN70J4UQl1szC4nA+48doq8o4hHssFvgJfgW95wBjAfcpBZhUHM+uYHQCn9IMyu3Vxrz/1Jwc4wAEOcIADHODAooFvHh/GaRo+C//0+99Pn7t3NKfvZ+H2Z59l0z/EsDgLfLO5e8ejgschcLHelh+EK+f4jeswyne/Qtwurd124BvD2mxU77RKV4LdmFW0jfQdhcVrynWGePwX+Ap8Bb5rOiCsIzRNOcisY7vWWQ+AU/pBGR8IOMABDnCAAxzgAAc4sFsOrCTwzYLZGaN6i9G42RQOowD4dvj0s9+HT4tpG8oQOJa5/ccpgW8WEP8+fJGFaNO2Ny1hs3yfCGwr8C1/lO3u7+qft5tz+E7LI7JpIMowOI7qDZURwCvOeYZ4LBf4CnwFvis+EEw7GK1iecpBZhXbsY7GCafhSEo/KLNbF/f6U39ygAMc4AAHOMABDqw28B2P1q3NyduYfqEMd0PLCN9ZgW85urcMLo3yLUm4bxLYRuAbw97rlTl8R/P1NisXKj/mVn4uj+8LIbw4DOEviqC3+rZseVl2RfdDPP6Xge+NGzdCvL3xl3/1k7Bvt7513D6HbSl9gc/sC6195rOptqd4qsxsT/HBhwMc4AAHOMABDnBgaA6sNvAtR99Wo6rJkbgxqM0C4TgXb+oI32zu3n8J9Vke4rrb5hCubt/jfSSwjcA3++xeCXzj8xj61qZmaBm1W/1xt1FflXP3FuFuLLPq0Hdox6pYX4GvEb5G+K7oG59NhI0pB5lN1GPft5HSD8r4AMMBDnCAAxzgAAc4wIHdcmAlge8f/yWbnuF2ZbqGthG+1Skdps3h2zrCNxsJPCXYjUFwYwTxKDTzYG8J9CXwjTlDnJ83C32LUbyjH2mr5DZZ6FuGvJXQOI4argXGlfcsm2EM8Vgu8N3DwDd+a5LybUfrtyvl/Cgr3HGqO17KTlQtv/Tj4iDS5chePeBERtX5Zkpm8T6UB6AVsto4n6Lu1W/I4uPRQXTGr19mDGaBrbpU7YfIrfm8ZFg5mNcmam+wXueBPjqX0g/K7NbFvf7UnxzgAAc4wAEOcIADywe+cRqHOLJ3ciRv/tFpcnltSofGCN/8PZU5fLNAN87rO/2DWD5iuG108fT3eGW3CfQp8M3C3AJ3NWsps59s3t9mllDJA8qcYJRZlFnCkvdDPP4LfAW+U0f4ZnOqvBdCtkNNO75Vd7Qld6DUIK3c0dd2H0PFWe2qhpFVLt/W/wtC7VunFbDZJp9FA99ZB9kHVcZlkFu5z76UqDzPAvTyefHNXzwBVOsWGcWg+UW8mbBdMH3sQ8kQL0zUmbcc4AAHOMABDvTVgaUC3zjytghsQzPwLYLafOqG+lQMzcD3nz7L5/6Noe54FPDvwxezRvZWP7fGx0b6Nons9fNtBL7lALH4ub8a8lYHJ5bhbeycF0f5Z/wyBC7fH1+byB2KqSDKsqvIjvp6TJpVL4GvwLc98K0Ea+XOEXe26ujWcvkq72fJWr62yu21riu2vRpGzghr40GmehCJB6qJg82M97duf0b5ksGs+67rnFm+OQF6dKDaxlWO8C1H9hb3qYFv9LLsg+ygX/Zdh36cyaClP2bx95oPKBzgAAc4wAEOcIADHNhNB5YKfPc6UtT4PhPYRuDb9TP4tssP8Zgu8BX4tga+MUSrfrOS/fJhZZj8una2lJ1oXdserXdOUDhzxHPbUXyF3LbFpzqKthZqNwLfclR4ZBnD11nh90pG+N7PR/PG7WXf/pVhbxnSxr4M40B41Mfl6wvep/SDMrt5ka9f9SsHOMABDnCAAxzYXwcEvm0feC0bOgGBb2jNxar5wRCP+wLfPQ18Ww9IZTBZhGQx8M1CtNbC44WzQr3qDpLyOGUnSlnPUmWKwDdOCTBzHt5YrmRWBIfVYHSpOkwJIrfFp9qu+Lj8y6ZOiCFr5b9MVP9rRVlu5n18f8mycp80wjfWpZhKI963hfFxPXF5OQp4Ff2S0g/K7O8HAX2v7znAAQ5wgAMc4MBuOiDwnfnJzosDJSDwFfiGv/yrn+zkrW8n41UEUrPWEQO52ujdRrgYw7EHjTLxPeueziHWOaUvZrVtJa/F0LGY/7UMEKttnxVoXo8jTg/zg0UWjDYC4WXrty0+WeAbnWib0iHCao6srcyxW7Y5sqxyHD0veOfU2/+N283C9TIQrqy/OqVDua1Y31V+EVGut7xP6QdldvMiX7/qVw5wgAMc4AAHOLC/Dgh82z+vWTpsAgJfge9Ohr0xxO7bCbsMldZ1PzPw/V0ID4pJs8vgMtajDD6bh7FqmVXUN6UvVrGdmeuIoWIlwCxHtFYDxBHDSgCZrTOOdC1C3lGg2QjUZ257Ttmt8CkD2YJJLUxtTOlQbVvK6PBRAFxyrNxnblWeTwt8/6II2ac5mjm7heA9pa+U2d8PC/pe33OAAxzgAAc4wIHhOSDwbSYCnu8CAYGvwFfgu6FffK+GZut4PAorZ4SL2YjOYqRqax2K/8I/CuxmrKv1/VPKp1z0dFnfQmVjyFgJfMt1xEAxmxagaPvEgb14T5yb9m5jhHS5jmXvN86nCLCrPnQJfKvTKDQD8NrzlmC3a+BbZVur4xTXquW7Pk7pB2WGdwGvz/QZBzjAAQ5wgAMc4MAsBwS+E5+CLdgBAgJfga/Ad18D32YAWgSe1TCva2A2rfysk2v52rT3rmx5s72zAsMyqKyUaf3xsMrry9SzZDDrfpn1T3tvauAbv0woR0I3p1qoBbzFqPHRFwblVBgFz9H2Sr7N+/JH2oqTa+liuY0y8I31KV+b1rZFls/i7zUfEjjAAQ5wgAMc4AAHOLCbDgh8dyDd1IQJAgJfga/Ad18D3xhWxsAtzu17P5/eoQz1FgnLZr0n5cJo1vtX8lpsa8sI39Z1F1wyOPE95ejfcgqBMqjcxcA3hrTFvL5XivaVIW8MXlP/YiBbBrSZZ8WPsGWONflVnpfbKvul+ny0viJYXrWvKZ4qs5sX+fpVv3KAAxzgAAc4wIH9dUDgm/opT7khERD4CnwFvvsc+BaBXhwxGf9GIzNXFGSWoV3KxVNZdm33MVScEfiWDEYH8DLcrYx8LsPHavC4ivpui09sRzlf86j9ZcBdYVWOsG1r66zXSl5l4Nt8PlrflMA31qka6ja5z9r2aN0dXE7pB2X294OAvtf3HOAABzjAAQ5wYDcdEPiOPgV7sEMEBL4CX4HvAAPfUTiXejAqwstqwDcRiBXB5jpC35QLo4n6dAjqkt47J/CtraMMIFuYlKNcV8lpG3zKdpRTI8QwthquxuejvziFQvX56IUZD05DePltPso3lnoR31+M8s2ex7mkI+firwyeR6Fwpf+jt+VfWd9af1XKLrM8pR+U2c2LfP2qXznAAQ5wgAMc4MD+OiDwLT9tud8lAgJfga/Ad4CB7zKh1jbem3LxtI169WWb+Mw/EG+ir1L6QZn9/SCg7/U9BzjAAQ5wgAMc2E0H/vyvT8Lxyctdyvq0Zc8JRJ8zrxPyrp/8/XnYxOftvm0jtnuIx/Sjo6MQbzdu3Mhub/zlX/1kZ4PdaW3rW8f1Te5N1ielLzZZn75tCx+Bb4oDyuzmBwz9ql85wAEOcIADHODAdh14+s234cGXQt89z0h3pvkx7I0+R69Tji3Xf/9j+Dd/u1+hb2xvbHcKn76VEfj+1U9613F9Cxk3WZ+UHWST9enbtvAR+KY4oMx2Pwjgjz8HOMABDnCAAxzYXQdiOBZHRMb/Bu+GwZAdiB6nhr3lMS2Gn/sy0je2c6hhb+wvga/At1dD8suDyKz7voWwm6zPLC7la5usz75uq2Ttfncv5PWtvuUABzjAAQ5wgAMc4AAHOMCBoTog8BX4CnxX9ENemwg/Uw40m6jHvm8jpR+UcWHAAQ5wgAMc4AAHOMABDnCAAxzgwDYcEPgKfAW+At9eOTCEMHkbB2vbdJHAAQ5wgAMc4AAHOMABDnCAAxzgQIoDAl+Bb6/CvhRphxAIrquO+JjDN8UBZVwAcIADHOAABzjAAQ5wgAMc4AAH9tcBga/AV+BrhG+vHFhXWL7K9Tpp7u9JU9/rew5wgAMc4AAHOMABDnCAAxzouwMCX4Fvr8K+lB1mlcHd0NaFjxG+KQ4o4+KDAxzgAAc4wAEOcIADHOAABziwvw4IfAW+Al8jfHvlwBBCeCfN/T1p6nt9zwEOcIADHOAABzjAAQ5wgAN9d0Dg28PA9yd/f76XAVxsd8oOg8/sA+u+8tlUUJzqaYrLysx2GR98OMABDnCAAxzgAAc4wAEOcIAD3R0Q+PYw8L3++x/Dv/nb/Qp9Y3tju1N2Ynxm7+j7yGdTYW8XT1NcVma2y/jgwwEOcIADHOAABzjAAQ5wgAMc6O6AwLeHgW8UOYZ2+zJSM7YzNewtd3J8Zu/s+8RnU2HvIp6Wvrqf7Ss++HCAAxzgAAc4wAEOcIADHOAAB1bngMC3p4EvyVcnOZZYcoADHOAABzjAAQ5wgAMc4AAHOMABDuyLAwJfgW/SNAr7skNop4M/BzjAAQ5wgAMc4AAHOMABDnCAAxzgwJAdEPgKfAW+xw5iQz6IqTt/OcABDnCAAxzgAAc4wAEOcIADHODA2AGBr8BX4Cvw5QAHOMABDnCAAxzgAAc4wAEOcIADHODAjjgg8BX42pl3ZGf2Tdb4mywssOAABzjAAQ5wgAMc4AAHOMABDnBgXx0Q+Ap8Bb4CXw5wgAMc4AAHOMABDnCAAxzgAAc4wAEO7IgDAl+Br515R3bmff3WSrt9Y8sBDnCAAxzgAAc4wAEOcIADHOAAB8YOCHwFvgJfgS8HOMABDnCAAxzgAAc4wAEOcIADHOAAB3bEAYGvwNfOvCM7s2+yxt9kYYEFBzjAAQ5wgAMc4AAHOMABDnCAA/vqgMBX4CvwFfhygAMc4AAHOMABDnCAAxzgAAc4wAEOcGBHHBD4CnztzDuyM+/rt1ba7RtbDnCAAxzgAAc4wAEOcIADHOAABzgwdkDgK/AV+Ap8OcABDnCAAxzgAAc4wAEOcIADHOAABziwIw4IfAW+duYd2Zl9kzX+JgsLLDjAAQ5wgAMc4AAHOMABDnCAAxzYVwcmAt83f/rzsG+3fe187Xbg4wAHOMABDnCAAxzgAAc4wAEOcIADHODAbjkg8P3pz41wNcKVAxzgAAc4wAEOcIADHOAABzjAAQ5wgAMc2AkHBL4C350Q2TdRu/VNlP7UnxzgAAc4wAEOcIADHOAABzjAAQ5wYDEHBL4CX4Gvb684wAEOcIADHOAABzjAAQ5wgAMc4AAHOLAjDgh8Bb525h3ZmX3rtdi3XrjhxgEOcIADHOAABzjAAQ5wgAMc4MAuOSDwFfgKfAW+HOAABzjAAQ5wgAMc4AAHOMABDnCAAxzYEQcEvgJfO/OO7My79E2UtvhmlQMc4AAHOMABDnCAAxzgAAc4wAEOLOaAwFfgK/AV+HKAAxzgAAc4wAEOcIADHOAABzjAAQ5wYEccEPgKfO3MO7Iz+9ZrsW+9cMONAxzgAAc4wAEOcIADHOAABzjAgV1yQOAr8BX4Cnw5wAEOcIADHOAABzjAAQ5wgAMc4AAHOLAjDgh8Bb525h3ZmXfpmyht8c0qBzjAAQ5wgAMc4AAHOMABDnCAAxxYzAGBr8BX4Cvw5QAHOMABDnCAAxzgAAc4wAEOcIADHODAjjgg8BX42pl3ZGf2rddi33rhhhsHOMABDnCAAxzgAAc4wAEOcIADu+SAwFfgK/AV+HKAAxzgAAc4wAEOcIADHOAABzjAAQ5wYEccEPj2MPAN/hBAAAEEEEAAAQQQQAABBBBAAIEVEzg/Pw/l7ezsLJyenobXr1+HV69ehR9//DH88MMPK96i1SGwHwT6NjpY4Cvw3Y89TysRQAABBBBAAAEEEEAAAQQQ2HMCZdgb76uBbwx7X758GU5OTvackOYjsBgBge9Pfx7e7Nmtb52ymFrehQACCCCAAAIIIIAAAggggAACCEwnUAa+MewtA9/q6N6Yj/hDAIHuBPqWLRrha4Rvd4u9AwEEEEAAAQQQQAABBBBAAAEEBkegGvhWp3MoR/d+//33g2uTCiPQBwIC356N7o2jjfvWKX0QVR0QQAABBBBAAAEEEEAAAQQQQGC3CLQFvuXcvTEbefHixW41WGsQ2BCBvmWLEyN8P+xhILvuKSD61ikbctFmEEAAAQQQQAABBBBAAAEEEEBgjwjMC3y/++67PaKhqQisjkDfskWBrxG+q7PbmhBAAAEEEEAAAQQQQAABBBBAoLcEmoFvdf7eOJ2DwLe3XadiPScg8O3hCOK+dUrPHVY9BBBAAAEEEEAAAQQQQAABBBAYIIFpge/JyUkQ+A6wQ1W5NwT6li0a4WuEb292DhVBAAEEEEAAAQQQQAABBBBAAIH1EWgLfKs/2BZDIn8IINCdgMDXCN+5PxLXXSvvQAABBBBAAAEEEEAAAQQQQAABBGYTEPjO5uNVBBYlIPAV+Ap8F917vA8BBBBAAAEEEEAAAQQQQAABBBYmEAPfs7Oz7HZ6ehriHL5G+C6M0xsRGBEQ+Ap8Bb6j3cEDBBBAAAEEEEAAAQQQQAABBBDYFAGB76ZI286+Eeh94PtmDwPZddepb52ybzuF9iKAAAIIIIAAAggggAACCCCAwPoJCHzXz9gW9pNA37LFiR9t+9cbPw/rDlj7tv6+dcp+7hpajQACCCCAAAIIIIAAAggggAAC6yQg8F0nXeveZwJ9yxYnAt++hbGbqE/fOiVlB3n+7YvwhwePwhd/Opx7i+Vi+aH8fXXjV+G9G1/PqO7X4eP3/ya8e3nW7Tfh8xlr8NIqCcT+aOMdl/8qfPykZVuf/2ZO//3NHAcm1/n5r/8mvPvrf558YbTkn8O19z8NX1WfX67Wu/l6CGEN9RxtvrcP8v3LPtjbDqpXLMHR6rHy2uchxGNsdVl8fO3Gp+G91mNqyz78JJZtWV6vmWcLE0jZB0MIsR9qx7R8g/FYGPu589/E+v45XBv1c16npjfl89nHi8412YE3RHbV80t7k7J9seW8VdtHW17P1hb3/WmvtW/O0pkEymuWWa5XjnvZcbBlX5vYj8Yb/fzXjfcX+2+tv7Pj8Hx3xmv1qJVA1j8V3q2FymPc9D53bGsFt8aF9WvxTuez7Hpozr5T7Lfluav1vnpcjeUrz8f1ie7UP4cOzZWVBr6189G0/Wlyf4zHvhG32jrWqJhVI7BmAn3LFgW+P/353Dl1N91pKQ7GEPf169OUolm5WH44f+UF2LQalxfl015P+6A17d2WdyUQ+6O4wKqdrBv9VH2t+rhlc7ULgNHr4/Vl4W7jQqv1oi2WqVyo1dY79SJutME88K28v/JK9rC2vjCuX7Pc8J7bB4fXZ/Ua192c/dr4A0wsN8/j/EPO6AK9vmrPVkZg3j6YB/ejfqgcU+v9mVco+lA7RrYExe0Bcsd6rKz9Q1pRvk/U+E49P1XDiHJfi/cLBAeVPh/TinWpbmP8ikdzCMRrgmy/iP3RxrDsr7ieaX3+q/Beoy8zL97/bfj/2pZHT97/NHxeDT2ydbdtf0799/nluC9M3efq+1Ysl38hVu3PHF7z2Nl8vs+IN9f2auDb/XiWnetmXLe3n+cqrat+Npjh1bXP63Wbdc1VWXuvHq438G2Gu5P7W369OT7W1b4Q6xUplUGgG4FNZ4fztjcR+Ibjfw7v79k8vvMgbfr1FKXiyN4uf13Ld1n3cmWnXTRPXqC9mzjSKL/oG59Alqufd88nUP9wNL7oqZ7c6xdGi4ycHa83hOSL8IkPxF+Hj3+dj/KtrePz34y/Ya42eMbFXvnhYhS4xPeNPjBWV9LjxwntK9tZ3o8/KLXto9Vl9sFt9nx1f2nWI75W9md5f+3zuL9W+694XAsGE47XtfLNLXs+QWCpfXD8gap6PKs+LrdX82Hacaq2vHr8LtfSfl9bd3uRPVzaOOe1EajxHheYznPO/vf+r4y8H2Ps/GjMvX5NM17ReJ+I+1gMauP/GMoex4Ap9ufoS+a8r2rXB1nZ8T5bvV4YbztuLcGdcaU8igQmrvXiF2K/qfwPs/z8Vv4Pl3g/DpfyvsqXlWFw0Q/OZxvza3zeGge+cb+oDtoYVybvz/L6Jem+7Mspx93RuuPr1cC48bxWz8qXa/V9eLS2Xj9YVeCbHQNHX7jEY9y0/qkc/yKZKtv4eLSOyWvR/LNHr3GqHAIjApvODudtbyLw3cQUCn3bxjxIm359ZMuMB10D3K7lZ2x6xS8tcmE7vuhur8wi62xfk6WzCLSc0LMLqrJ/yvvqhXWxvpaL8+qWJi+cZvXp+GK9uo7647xM0kVh5QKu7UNEdb2T9ewQRldXtPXH476arMr44nv82qzysdSs/hqvxaNVEZjsjzY3y601X8s/wEyuoxpIjL6kKT80lSsb3cc+b1zMj17zYD6BFv6jN7Xsg1lQXH6pMvv4FkOnWp/HD1bvfxo+jqHVtA9Yv/4flSl5Yt0my5ZhVm3dozrv2YPE4L76oTXudyXDKq1knpXzaHzPu9VzV3WFHicQqB6/ou/lvlV9a2UfTezvcv8q+70ejIxD47z/qvtY2/ardfF4gkDsk3h+Gu0XeX9d+3X+BWc90K0fM8v9sLpPJu+HExWxYBEC+XVIfGd5vqv3Ubkv5feV/WPU35NbjX1Y7nujV4vz33h6t9Er+YNqCBmXtASR+Ton61d61Fhjb5+uKvDNGjijH6YBqO5jo/5fYD3T1m85AtsisOnscN72BL4DndKha4DbtfzmdpB4wown7skTZ/3kLkjYXJ903VLZh833VT4cNV/q+rx2ATDPleqHpvi4cmFYbDf7cFX9Br9rfWaUX+e6Z2x26ZdaL4zjWqeNfl56i1awOgKT+1r1Qrq5nczRRtCXj/DNj7Oj95YfjIoPPOMPOY19Ku6fLftZc7uezyaQvg/G/h4f27L+rBzPRh+cKpsb9WlcVvZr5fXsYW151anq4/xN1fVVHzdXub/Pp50XCyLZPtMh8C3K16+Lmue66nPXTJ3cy/iWzMr9q8qzfFyUieUr+9ysbVX3x/Go0vp+WN+H5rgza2N7+1pk1uib2j72dfgq+z2J+rEscq/2Y+yr2sjt4jw5ERruLef1NXy8n+SBb5zmJB7vauxbr0fLgLhZt9jXjWuVWKR2nmu+p3i9um/H8pXntXpWrnvq+3DLenu4aD2Bb+P4GdnVzl/lcTb/LJeF5PH1cjBBhwRp3WMAACAASURBVGNrD5GqEgIZgXkB7KZfF/gKfLe8azYubJ98Gq5Vf7AtO0mUJ4fGSaQRWLR/EGo52W+5xbu2+eyC+XI+b10+p1X5wWjy/r3/94PpI8qm9Ge8GIgXWG3fnLdfYNUv6CPv7CJ+yvpbvfm//ttC9cz6Nl4cVi4CB9PfrRfBTZb2wX72Z7OfGvO7JlV6vI7RftXqRPGBKPsgll+wVz8wJ21KoXYCrbzH/VK+KTvm/vo3xZel8fX6eW78gbR8R8sP9cUPV83t1Z5XtxsftxzPi3P1yJfx5vbqUdfzy3s3/kcWTsWRh+nntRakxYfoWiDSUsyieQTysPC90Y/MVvep5n5QXo/GdbbvF+Nrivp+Gd8x4UoRctT3ocZ18bzqe71CoNInlZCu9r+O4nGuDKHKkClbQ/neah+3/A+1ytY8XB2B8XkrBri/Cdfi/nijPt1a3E/ajnfj91bqMy04jP0/7/NA1Z2W8nkd6vtpfR+u1KPHD1ce+EauWd8Vx77Kvlae68ovvSKveKzMP+NV9rnivDY+jo6/hOkxSlVDoEZg04HuvO0JfAW+NUE3/6R+wgxPvs5+vCLO15v98EX1pFurXON9tdc82RyB+oXZeJ7lyRo0L4aazyffUS7JL8InL/K+Dp9/nv9X5dqFQTnKo3x77b59XbPqMuu12qrLJ9nFYeXipVw+gPt40VxelMXqxrZPD/Psg/3p0uh13bms75ofasqQr7l8dJGeryO+N9vfosu1D8Rli8sPxpOBRlnC/WIEUvbBz38duU/f/9o+/NaOY5V+nba8/uN97X6Vx4raOhZr9n69q/hiu+QW7+vnsMlwfXz+i/0++fr4/fXjwH6BXbC1Tz4NH2dzmLexm3R/vJVZr7Xvn2XYka1j2n44Y98eb9ujGoHsuivfL6bOR9/4PBGPk/X9pujPG5XR25U+qm3Pk5UTGJ+3KiN2a/xn7G9Z/1evR+L+17Y/G+Fb7bhVBb6jfSnbx2I/VfatuKwW4sZ+yY+PH9d+rLKo2bSgvlpxjxHoOYF5AeymXxf4Cny3vMvkJ/aZcwmOPtxUTuat/61ny03Zw83HD6r5xXXZN40T/ajv8pN/GRA0f5l1Nrp8neMPvC2j1YpvifP1VD4QV8Oq2gVH5WKkWsdq+Wxlcdtl22bXcvzqjAvNcaGePqrUPfKa4FGptn2wAmPbD6On9Q83ZZg0s2a1C+vxOkYfvGoftsYje8cfklv2o1nOzKyMF3MCqftgLBePTfG+pR+qy97/NNyrfrCq9eu43+v/1bWyPBvJON2vJNd2vnsT+qHxPz+mcWtbHpfl+138MrzeF2O01T4bL/UohUDJLqUfy/9mHt8za9+bvHaYFfjWj6uT701pxb6W+fxG/gN6S7V/FBrm/RqvOUfnwqVW7M0pBMasK4FvNiq+ON7VzluTa8yOkZXAsfqZoVZ6znqy82D1y4FYvvK8Vs/qebb2OaS2xd4+WVXgmzWwdj1ZaXLb8saXnpXSrT/AWHvdEwQGQGDTge687Ql8Bb7b3W2mnXibyxvh0/jDz/SL7akn++22eIe2/nX4+NfxIjteHM//cFL/EJvwoWoUHI0vvmfBq6+/WrL4UDa6EJz8sDx6b/QuXsCNtt2lnsU2s3VMbqNao34/Lts8u0/tg33qxeh43bmR023VLMP6eFwtP7CUH2gm9oF8Hues3Pu/mj1dSfO43bZtyxIIpOyDsUz7Pjr+QDreVM2Haf1UW151qjiGlq4U9+UXeLV1jze5Z4/qIUXtv5BnJCb7axq3actzoO19MdqPp41q27Pe6N7cqu/lu+M1Tv5fy99rvcZpe0/53uZ9uU+3XLMWP6A4vmaddKW5Ns9bCEwES5Mc47415txYR/X95XmwPC82inq6egLxvDU6jo2uwcsRuXE/LL9omb7t2L9xHeW5qbVk7TzXUiK+XvR7ub5RvSrnwGs36v8DavZxu2U7PVi0lsC3el1Z4VVjWOE70VfV/bAHjFQBgUUIzAtgN/26wFfgu4jHq3tPGTw011g7IceLtnqY0Sxef97lIrz+Ts8WIRB5twcP1bV1uhhqnPDjheD4omDGB6fWi4tq3apuxMflBWYXvyqtatQzeyX7oFDdZqV87x8WTLI5uCKbRdtR5dz7Ru9ABSd5z9rfsg8x8YK76W/mbvGhqtXjyQ/QNXi143btFU+SCaTug9P7YlrgW/vAVf1AXdat1n9Vp6qPy8Lj+1mujUvt+qNG4FtjGds+2V/TuE1bnhOc1RezXtt1/su2r8mufF7eN/o321x8rbyGmHbfPIeW64k+lNcdTTeaz5dt2568v3k+m7LPZYFvdn6r9FlxzVOGwdk5MruebPbfnrDceDOLfSkLAst9pKxE3B+qAzHK5Y372P/xtwV+nd+PPzM0yk0cm1teLwLJ8pXoQ3Qj82JKWDn7uF2uqV/3awl8q02MI3nf/1V49/1f1X+fpyjTyqzox9r1ysKfRaqV8RiBzRHYdKA7b3sCX4Hv5uyf2FJ5IT3xwvxfUW15y2hRdiHnIm3EY+0PYj/mvLOLodbQNb+wnnoB1qhjPeAtRhg2LsDKt+Tb/E3I54L65+wDWHnRXpap3tf+S2X1hWLO2tQ6xrdO1HPuvLeNDfbl6ejDT/kBtKjYtOXz6m0fnEdoxa9PHktbL6SzreZBQ/zBqOyCuvLhZSLgj/1Y2++KD14z9vHx6PgVN3HXVzdtX5u2vCXMKBFNC3xHx7a4zk6Bb7nm9vvprrWX3/WlkX/9w2p83ji2zjjfzOZZBCNT98HJ7ew679W0r3oMzY9z+XVEZXm2L1avLSuvtVYivl4tnx97P35SFC7WF69d6nPlx3LV97Wu3MImgdagaHJfbLs+zK4ji3Ndvv9Wr2ntU03U630+Dnyzfsl+IHY8pdToPFZUYnS8rV2rVH4gsbE8m7Jh6vGz8KXynqobcZNxe+/d+LTyhU1ekdnH7fUSW3Tt6wt847GvCOmLL2Lyvqwf11qZFeUXbZP3IdAHAvMC2E2/LvAdaOD7hwePwuvXp0lOx3KxfO/+4sVu5aQa65efEPITbvOk3l7/4qTSOHm3XdC1v9/S5Qk0P9S0r7H1xB6Ltl2kT4QRlQ9A2Yek8UV86Ul1/aMLwMyL+sV61bHJD+X1i5FaS5Lqmfs4GP/KNk3wrrW89mvkk22zDzZpbe55O/tJr8f7y7vv/T/h/x4dd/NgY2b5WlBV2Q/bGhn3zbkutb1xj5ctvA9O74t4/JvcT6cxrjtQHk/rP9rW8t6y3i3H2JbSO72ofr75m0Z4Vza95Dw+H43OWY1z2uT+OH7P7H6Jx4Nq2XLb7ucTKNh9Hqd1qjJsMo39WL6ecvwtryma6ylrNA638lHgk4FTWdL98gTiPjd5bCyPpUV/js6Pxfay/bPs8+XrYA3zCMR9Ip/Cof5FSP6+/Br+78J/ey/fVyb7s7H+8lxVXpvMu06Jr5cOxPeWjyurrXqU1yfWZXiOrCbwHR8H4/VDfj6ssKgxLM6DRV9EduNrjgJwrXwFuocIDIjApgPdedsT+A408H3+7YssxP3iT4dh3i2GvbG8PwSGTKD1wqBvDZp3Idm3+qoPAggggAACCCCAAAII7BWB1QS+e4VMYxFIIjAvgN306wLfgQa+SbYphMBOEZg2QqYvjex7/frCST0QQAABBBBAAAEEEEBgWwQEvtsib7u7TmDTge687Ql8Bb67vs9pHwIIIIAAAggggAACCCCAAAIIhBAEvjRAYD0E5gWwm35d4CvwXY/p1ooAAggggAACCCCAAAIIIIAAAr0iIPDtVXeozA4R2HSgO297Al+B7w7tXpqCAAIIIIAAAggggAACCCCAAALTCAh8p5GxHIHlCMwLYDf9usBX4Luc0d6NAAIIIIAAAggggAACCCCAAAKDICDwHUQ3qeQACWw60J23PYGvwHeAu5EqI4AAAggggAACCCCAAAIIIIBAVwIC367ElEcgjcC8AHbTrwt8Bb5p5iqFAAIIIIAAAggggAACCCCAAAKDJiDwHXT3qXyPCWw60J23PYGvwLfHu4uqIYAAAggggAACCCCAAAIIIIDAqggIfFdF0noQqBOYF8Bu+nWBr8C3bqhnCCCAAAIIIIAAAggggAACCCCwkwQEvjvZrRrVAwKbDnTnbU/gK/DtwW6hCggggAACCCCAAAIIIIAAAgggsG4CAt91E7b+fSUwL4Dd9OsCX4Hvvu6L2o0AAggggAACCCCAAAIIIIDAXhEQ+O5Vd2vsBglsOtCdtz2Br8B3g/rbFAIIIIAAAggggAACCCCAAAIIbIuAwHdb5G131wnMC2A3/brAV+C76/uc9iGAAAIIIIAAAggggAACCCCAQAhB4EsDBNZDYNOB7rztCXwFvusx3VoRQAABBBBAAAEEEEAAAQQQQKBXBAS+veoOldkhAvMC2E2/LvAV+O7Q7qUpCCCAAAIIIIAAAggggAACCCAwjYDAdxoZy/eZwNfPjsOyt00HuvO2J/DtYeC7rGTev/yOiiGGHOAABzjAAQ5wgAMc4AAHOLBrDnz1zfch3p48fREef/1dOHzybXj4+Hn48vBpePDlV+GPf360dPC1a8y0Z/ePA9H76H/cD+L+EPeLuH/E/aTcZ+Z5MC+A3fTrAt8eBr77/K2KtiOAAAIIIIAAAggggAACCCCAwHoIGOG7Hq7WOmwC//qv/xoODw/DkydPwtdffx2ePn0anj17Fp4/fx6+/fbb7FYGqNPuNx3oztteWc8bN26EeHvjzZ/+POzbbR6kTb8+7N1E7RFAAAEEEEAAAQQQQAABBBBAoI8EBL597BV12jYBge+OhsGbDnTnbW/bots+AggggAACCCCAAAIIIIAAAgjsHgGB7+71qRYtT0DgK/AN88LaVby+vKrWgAACCCCAAAIIIIAAAggggAACCNQJCHzrPDxDIBIQ+Ap8Bb6OBQgggAACCCCAAAIIIIAAAgggMEgCAt9BdptKr5mAwFfgK/Bd805m9QgggAACCCCAAAIIIIAAAgggsB4CAt/1cLXWYRMQ+Ap8Bb7D3ofVHgEEEEAAAQQQQAABBBBAAIG9JSDw3duu1/AZBAS+Al+B74wdxEsIIIAAAggggAACCCCAAAIIINBfAgLf/vaNmm2PwLzA92//9m/D0dHRzNsqftNrleso63vjxo0Qb2+8uaOh7qx2rRLoKta1PcVtGQEEEEAAAQQQQAABBBBAAAEEdpWAwHdXe1a7liEwK/CNYW+8/d3f/Z3Ad1a42sfXVhHSrnIdy0jqvQgggAACCCCAAAIIIIAAAggggEAbAYFvGxXL9p3AtMD3/fffz8LeMvCdFfquMhdcxbqM8P3pzzcyTUOXztr3HU37EUAAAQQQQAABBBBAAAEEEEBg9QQEvqtnao3DJ9AW+Mawty3wnRb6dsn9NlFW4CvwHf6eqQUIIIAAAggggAACCCCAAAIIIDCXgMB3LiIF9pBAW+D77Nmz8Pz58/Dtt99mtzJAnXa/iRC3yzbKeprD9/i4NyN993Df0mQEEEAAAQQQQAABBBBAAAEEEFgzgVUFvqenZ+HRk2fhiz8dDvYW6x/bkfI39PZ2aev5d9+FH959NxxfvBiOL1wY3u3ixaz+sR2pfwLfHf1Bty4J+SbKpgqpHAIIIIAAAggggAACCCCAAAIIIJBKYFWBbwwQnz1/Ec7PU7fcr3Kx3rH+sR0pf0Nub9e2ZmHvEIPeRp1jO1L/BL4C342MAk4VUjkEEEAAAQQQQAABBBBAAAEEEEAglcCqAt84sneoYW/JKtY/tiPlb+jt7dLWwY7sbQS+sR2pfwJfga/AN3VvUQ4BBBBAAAEEEEAAAQQQQAABBHpFYJWBb68atmBlugS+C26iN29Lbesgp3Fohr3F81T4Al+Br8A3dW9RDgEEEEAAAQQQQAABBBBAAAEEekVA4FvvjtQQNLVcfe39epbaBoHv1+Hp06fBj7btQAi8iXl5u2yjX4cEtUEAAQQQQAABBBBAAAEEEEAAgV0gIPCt92JqCJparr72fj1LbcM+B77//b//9/Db3/42fPjhh+Gjjz4KH3/8cfjkk0+y240bN0Lb7ejoKMRbl9xvE2XLepV1fuPNHQhwu7ZhE6C7bGORQ8Lzb1+EPzx4NPfXMWOZWNYfAggggAACCCCAAAIIIIAAAgjsFwGBb72/U0PQ1HL1tRfPDq+Ht6/crb10+8ovwtsHLfMH37ka3irLxsc/+0XjdjXcrq0p/UlqGwS+At/QNVjta/kuYewmyqbvruOSMch9/fp0vGDKo1gmlvWHAAIIIIAAAggggAACCCCAAAL7RaCPge/Dg0vhrXeuh4dzu+IwHLxzKbTlpHPfOqVAagiaWq5tMw8PruZ1bg1w80D38p274XIj3L185WojFI7t73fg++r+SYHgUXh97V44L56d3/8g5EHyzXB2ci+8uvBBOC2LhhDObl3IX8/ecxJOrxXPp8zNmxpKt/VH27JyDl8jfHdsFPAmQtwu22iTb96yLgefLmXnbdfrCCCAAAIIIIAAAggggAACCCAwDAJ9C3yzsDeOaK2ObJ2FMo6W/dnioWdz1an5SGq55vpDuBsuV0bsto3qjQwu34nvPAwHVyrBd2tAvHjbU9uQGqa2lYuB79mtGOYWge/jm+H41qMQA9/Xj2OQWw18H4XXWfAb72PAezOchZNweuteOM9C4eVD38n+aF8i8N2xoLcccdwljN1E2Xb9Zi9N3XHjWrqUnb1VryKAAAIIIIAAAggggAACCCCAwFAI9CnwjdMaVEf2jsLfAmb2vDHqdXKKg3KE7GI9kJqPpJZr1qIc3RvbGkfszqz/4fVw+eDuUqN4m9uvPk9tQ1uQm7qsc+AbR/TGULg5srf5fMGRvtX2z3os8BX4bmQS5lkSTnstdceN7+9Sdtr2LEcAAQQQQAABBBBAAAEEEEAAgWER6EfgOzl9QT0IbYxivXO1GAFbZ337yvLTO6TmI6nl6jUMIQu1Y2hdjGJuG+FbvidvTzltQ7xvzt9bPC9HDJdvTLxPbUNquNtWrmvgexZH/d6P046ehPPKFA95k/Jlo+keFgh9E9EEga/AV+CburcohwACCCCAAAIIIIAAAggggAACvSKw9cC3ZUqG8ZQGJao8EM6nOYjL7obLzTl+43qay8q3d7hPDUFTy01uujJNw52r4e13LrWO8n374B8bAe+lcHDQnMO3hcPkBqcuSW1DW5CbtOzWrN+LiuFty5QOxXQP1fXnUz8sP51DXGfqn8BX4CvwTd1blEMAAQQQQAABBBBAAAEEEEAAgV4R2Hrg20JjMvCdLBTLVEfHrmJ0b9xKagiaWq5Z8+q0FDHszW4Hh+HhwfVwu5zfNwbBo1+iK0f4hnxe4+aUFkuE3KltqIavXR93HeFbzuF79rhJrnxezu+7WABcrmXevcBX4CvwnbeXeB0BBBBAAAEEEEAAAQQQQAABBHpJoB+Bb8cpHQqS2Ty4d/KpDsYB6XKYU0PQ1HKzajNrHt9xe8Zs4py/4+VxzT0f4XvhQlg08M1/tC0PdY3wPV5J9nh0dBTi7caNG9ntjfKHzPbpfhM/xNZlG7MOENNe63Lw6VJ22vYsRwABBBBAAAEEEEAAAQQQQACBYRHoR+BbZ5Yywjd/Rx6G1kPQ+rq6PkvNR1LLtW1/PMp3PE3D5AjfD8PlbDRvHAVczGF8p+VH3no+wjcPaz8IpyePwutr98LZ/Q/CcTFtQ/7azXB2ci+8uhDLFLRGz/PRvFm5W/fCeVhudK8pHQS+K0nOuwS688q2HSDmLety8OlSdt52vY4AAggggAACCCCAAAIIIIAAAsMgMMjAN5v3N/5gWR6EjgLUJcLPsrdS85HUcuV6y/s4qjcLqGN4G+tbTN8wGfgeFm+pT+lQhtujNpc/AFduoMN9ahu6TuMwLn8znGUhbR74nt4/CdkPrtXm6a0GvkWgey2Gu3F+3+YI37i+8fLxdtKnd0jFY0oHUzpsJBxOFbJa7g8PHoXXr0+ri1ofxzKxrD8EEEAAAQQQQAABBBBAAAEEENgvAtsPfPMpGd5qzk078fxq+IeD4gfOpgW7oyD4UhhNgduxO1ND0NRy0zb/8OBqXsfafL0hxEA4shj/QF0R+I7alr+eB789n9IhG9F7czxyNzwKMfSNfzH4fV3O0/v4ZjjORvg2RvCOfvStsfxCesDbDIWn9UdzucBX4NvbwPf5ty+yIDcehGbdYtgby/pDAAEEEEAAAQQQQAABBBBAAIH9IrD9wLdfvFOD3NRy621dzwPfJYLZZlC7quep/SHwFfj2NvBNlVg5BBBAAAEEEEAAAQQQQAABBBDYTwIC33q/pwa5qeXqa+/Xs9Q2rCps7cN6UntA4CvwFfim7i3KIYAAAggggAACCCCAAAIIIIBArwgIfOvdkRqCpparr71fz1Lb0IegdlV1SO0Bga/AV+CburcohwACCCCAAAIIIIAAAggggAACvSIg8K13R2oImlquvvZ+PUttw6rC1j6sJ7UHBL4CX4Fv6t6iHAIIIIAAAggggAACCCCAAAII9IqAwLfeHakhaGq5+tr79Sy1DX0IaldVh9QeEPgKfAW+qXuLcggggAACCCCAAAIIIIAAAggg0CsCqwx8z8971bTOlYn1Tw1BY7kht7dLW48vXgyrCly3up6LF5OdEPgKfAW+ybuLgggggAACCCCAAAIIIIAAAggg0CcCqwp8Hz15Fp49fzHYEDQGoLH+sR0pf0Nub9e2/vDuuzsR+MZ2pP4JfAW+At/UvUU5BBBAAAEEEEAAAQQQQAABBBDoFYFVBb6np2dZWBpHvg71FkPc2I6Uv6G3t0tbz7/7LmSh71BH+l68mNU/tiP1T+Ar8BX4pu4tyiGAAAIIIIAAAggggAACCCCAQK8IrCrw7VWjVAaBJQkIfAW+At8ldyJvRwABBBBAAAEEEEAAAQQQQACB7RAQ+G6Hu632m4DAV+Ar8O33Pqp2CCCAAAIIIIAAAggggAACCCAwhYDAdwoYi/eagMBX4Cvw3etDgMYjgAACCCCAAAIIIIAAAgggMFwCAt/h9p2ar4+AwFfgK/Bd3/5lzQgggAACCCCAAAIIIIAAAgggsEYCAt81wrXqwRIQ+Ap8Bb6D3X1VHAEEEEAAAQQQQAABBBBAAIH9JiDw3e/+1/p2AgJfga/At33fsBQBBBBAAAEEEEAAAQQQQAABBHpOQODb8w5Sva0QEPgKfAW+W9n1bBQBBBBAAAEEEEAAAQQQQAABBJYlIPBdlqD37yIBga/AV+C7i3u2NiGAAAIIIIAAAggggAACCCCwBwQEvnvQyZrYmYDAV+Ar8O2823gDAggggAACCCCAAAIIIIAAAgj0gYDAtw+9oA59IyDwFfgKfPu2V6oPAggggAACCCCAAAIIIIAAAggkERD4JmFSaM8ICHwFvgLfPdvpNRcBBBBAAAEEEEAAAQQQQACBXSEg8N2VntSOVRIQ+Ap8NxL4fv3sOLhhwAEOcIADHOAABzjAAQ5wgAMc4MAqHfjqm+9DvD15+iI8/vq7cPjk2/Dw8fPw5eHT8ODLr8If//xIHiGT2TsHBL4C340Evq9evQpuGHCAAxzgAAc4wAEOcIADHOAABziwSgd+/PHHEG8vX74MP/zwQ5ZxvHjxIhwdHYXnz5+Hp0+fyiNkMnvngMBX4CvwdeDbuwPfKi8urMvFKgc4wAEOcIADHOAABzjAge05IPDdHnve95e9wFfgK/AV+Ap8OcABDnCAAxzgAAc4wAEOcIADg3RA4Nvf0FEgvL2+EfgKfAW+TuqDPKk7cWzvxIE99hzgAAc4wAEOcIADHOBAXxwQ+HKxLy72qR4CX4GvwFfgK/DlAAc4wAEOcIADHOAABzjAAQ4M0gGBr8C3T0FrX+oi8BX4Cnyd1Ad5Uu/LQVQ9XFxwgAMc4AAHOMABDnCAAxzYngMC3+2x531/2Qt8Bb4CX4GvwJcDHOAABzjAAQ5wgAMc4AAHODBIBwS+/Q0dBcLb6xuBr8BX4OukPsiTuhPH9k4c2GPPAQ5wgAMc4AAHOMABDvTFAYEvF/viYp/qIfAV+Ap8Bb4CXw5wgAMc4AAHOMABDnCAAxzgwCAdEPgKfPsUtPalLgJfga/A10l9kCf1vhxE1cPFBQc4wAEOcIADHOAABzjAge05IPDdHnve95e9wFfgK/AV+Ap8OcABDnCAAxzgAAc4wAEOcIADg3RA4Nvf0FEgvL2+EfgKfAW+TuqDPKk7cWzvxIE99hzgAAc4wAEOcIADHOBAXxwQ+HKxLy72qR4CX4GvwFfgK/DlAAc4wAEOcIADHOAABzjAAQ4M0oFVBb4/vHwZHj5+Gr740+Fgb7H+sR0pwePQ29ulra+++Sac/PKX4fjixXB84cLwbhcvZvWP7Ujp21hG4CvwFfg6qScfMFIPLMr5hpUDHOAABzjAAQ5wgAMc4AAHNuHAqgLfGCA+e/4inJ+HQf7Fesf6x3akcB9ye7u2NQt7hxj0Nuoc25HSt7GMwFfgK/AV+CYfMFIPLMq5sOMABzjAAQ5wgAMc4AAHOMCBTTiwqsA3juwdathbJtSx/rEdKdyH3t4ubR3syN5G4BvbkdK3sYzAV+Ar8BX4Jh8wUg8syrmw4wAHOMABDnCAAxzgAAc4wIFNOLDKwLcMTod83yXwHXI7Y91T2zrIaRyaYW/xPHWfEvgKfAW+Al+BLwc4wAEOcIADHOAABzjAAQ5wYJAOCHzrsW1qCBrLDf0vta0C39+GDz/8MHz00Ufh448/Dp988kl2u3HjRmi7HR0dhXg7Pj7u1a2sV1nnN97c0VB3Vrv61imp30Ao5xtgDnCAAxzgAAc4wAEOcIADHOAAB1IdEPjWY9vUEFTgO8Afb7twIflLGSN8dzQM3oXA9+mzo/CHB4/m/jpmLBPLpp4MlHPhwAEOcIADHOAABzjAAQ5wetmLYgAAIABJREFUgAMc2A0HBL5bCHwPr4e3r9ytbfj2lV+Etw9aRg3fuRreKsvGxz/7ReN2NdyurSn9SWq4bYSvEb5h1qjZIb22C4FvDHJfvz6du6fHMrGsk/VunKz1o37kAAc4wAEOcIADHOAABzjAgVQH+hj4Pjy4FN5653p4ODfROAwH71wKbTnp3LdOKZAagi4zwvfhwdW8zq0Bbh7oXr5zN1xuhLuXr1xthMKx/f0OfF/dPylIPwqvr90L58Wz8/sfhDxIvhnOTu6FVxc+CKdl0RDC2a1iBHH2npNwem01I4pT9wsjfI3w3ch8HKlCVst1OfikHtCq6/fYBQQHOMABDnCAAxzgAAc4wAEOcGDYDvQt8M3C3jiitTqydUo4my2Oo2V/tnjo2Vx1aj7SJXOpb+NuuFwZsds2qjcyuHwnvuswHFypBN+tAfHibU9t6zIjfGPge3YrhrlF4Pv4Zji+9SjEwPf14xjkVgPfR+F1FvzG+xjw3gxn4SSc3roXzrNQePnQN/V4JfAV+Ap8TcxvdDQHOMABDnCAAxzgAAc4wAEOcGCQDvQp8I3TGlRH9o7C3yIxzZ43Rr1OTnFQjpCtx6ypz1JD0EUD33J0b2xrHLE7s/6H18Plg7tLjeKd1e7Utm408I0jemMo3BzZ23yeBcLdA2CB79Hoh+b8aFsPflUvVchquS4Hn9SdvLp+j4f9La7+038c4AAHOMABDnCAAxzgAAc40I/Ad3L6gnoQ2hjFeudqMQK2HmfevrL89A6p+UiXzKVayyzUjqF1MYq5bYRvWT5vTzltQ7xvzt9bPC9HDJdvTLxPbesmA9+zOOr3/qMQwkk4r0zxkDcpXzaa7mGB0Df1mGeErxG+Rvj6FneQ3+KmHuSUcwHIAQ5wgAMc4AAHOMABDnBgdx3YeuDbMiXDeEqDMrnMA+F8moO47G643JzjN66nuax8e4f71BB00cC3Nk3Dnavh7XcutY7yffvgHxsB76VwcNCcw7eFwxraunDgeysGt9P+YnjbMqVDMd1DdZv51A/dR/NW11E+Tj2WCXwFvgJfga/AlwMc4AAHOMABDnCAAxzgAAc4MEgHth74tuSBk4HvZKFYpjo6dhWje+NW1h34VqeliGFvdjs4DA8ProfbMcieGPlbjvAN+bzGzSktlgi5U9tahqWL3C86h+/Z48k+z5eU8/suFgALfE3psJEg9zhxuohUIavlunzblLqTV9fv8e5+w6tv9S0HOMABDnCAAxzgAAc4wIH9cKAfgW/HKR2KLDCbB/dOPtVBNfydFhWmLE/NR7pkLtO2O2se33F7xmzinL/j5XGtPR/he+FCWDTwzX+0LQ91jfA9XklGeXR0FOLtxo0b2c0cvomhbGp4u0i5RU60XQ4+qQe0RerhPftxkaCf9TMHOMABDnCAAxzgAAc4wIHhOdCPwLceiaaM8M3fkYeh9RC0vq6uz1LzkS6ZS7MO41G+42kaJkf4fhguZ6N54yjgYg7jOy0/8tbzEb55WPtBOD15FF5fuxfO7n8QjotpG/LXboazk3vh1YVYpiA1ep6P5s3K3boXzsNyo3vjCOXUY5QpHUzpsJKUfV4InCpktVyXg0/qAa26fo+HdyLXZ/qMAxzgAAc4wAEOcIADHOAAB6oODDLwzeb9jT9YlgehowB1ifCzDGVT85EumUu57ngfR/VmAXUMb2N94zy+HaZ0KMPtUZvLH4CrbiTxcWpbF5nKIX/PzXCWhbR54Ht6/yRkP7hWm6e3GvgWge61GO7G+X2bI3zj+sbLF6lX1f1ZjwW+At/eBr5/ePAovH59Onc3j2Vi2Vmie80FAQc4wAEOcIADHOAABzjAAQ5wYPcc2H7gm0/J8FZzbtqJ51fDPxwUP3A2LdgdBcGXwsHh3DiktUBqCLpo4Ftu9OHB1byOReBbLo+BcGQx/oG6Yg7fUdvy1/Pgt+dTOmQjem+OR+6GRyGGvvEvBr+vy3l6H98Mx9kI38YI3tGPvjWWX1hs/l4jfE3psJEQd96o3urri5xUnz47yoLceBCadYthbyy7yDa8Z/dO9vpUn3KAAxzgAAc4wAEOcIADHNgfB7Yf+JZRZz/uNxX4rqa1PQ98lwhmFxm9m/Ke1GObEb5G+G4kHE4VUrn9OSnra33NAQ5wgAMc4AAHOMABDnCAA8s6IPCtR6/DCnzrde/6LLWtKUHqUMqk7i8CX4GvwPeVE2zqAUM5rnCAAxzgAAc4wAEOcIADHOBAnxwQ+NZj0tQQNJYb+l9qW4cS5qbUM3XfE/gKfAW+Al/TYXCAAxzgAAc4wAEOcIADHOAABwbpgMC3HtumhqAC38Xn0U0JZtdVRuB7FG7cuJHd3nhzR0PdWe2qzp/bh8epQirnm2IOcIADHOAABzjAAQ5wgAMc4AAHUh0Q+Ap857myrvB1G+ud19bydSN8dzQM7kPIW61DKZx7J20OcIADHOAABzjAAQ5wgAMc4AAHVuXAKgPf8/N6eDq0Z7H+XUb4Drm9Xdp6fPFi2EY4u/JtXryYPApf4CvwNaWD/7aTfMBY1QnZelzccYADHOAABzjAAQ5wgAMc4MAqHFhV4Pvw8dPw7PmLMNQQNNY71j+2I4XrkNvbta0nv/zlTgS+sR0pfRvLCHwFvgJfgW/yASP1wKKcCzcOcIADHOAABzjAAQ5wgAMc2IQDqwp8f3j5MgtL4wjZod5iiBvbkcJ96O3t0tZX33wTstB3qCN9L17M6h/bkdK3sYzAV+Ar8BX4Jh8wUg8syrmw4wAHOMABDnCAAxzgAAc4wIFNOLCqwHcTdbUN+8SmHBD4CnwFvgJfgS8HOMABDnCAAxzgAAc4wAEOcGCQDgh8haibClGHtB2Br8BX4OukPsiT+pAOtOrqAoQDHOAABzjAAQ5wgAMc4MB6HBD4rocrX4fNVeAr8BX4CnwFvhzgAAc4wAEOcIADHOAABzjAgUE6IPAddjApWF5P/wl8Bb4CXyf1QZ7UnRTWc1LAFVcOcIADHOAABzjAAQ5wYEgOCHz5OiRfN1VXga/AV+Ar8BX4coADHOAABzjAAQ5wgAMc4AAHBumAwFfgu6kQdUjbEfgKfAW+TuqDPKkP6UCrri5AOMABDnCAAxzgAAc4wAEOrMcBge96uPJ12FwFvgJfga/AV+DLAQ5wgAMc4AAHOMABDnCAAxwYpAMC32EHk4Ll9fSfwFfgK/B1Uh/kSd1JYT0nBVxx5QAHOMABDnCAAxzgAAeG5IDAl69D8nVTdRX4CnwFvgJfgS8HOMABDnCAAxzgAAc4wAEOcGCQDgh8Bb6bClGHtB2Br8BX4OukPsiT+pAOtOrqAoQDHOAABzjAAQ5wgAMc4MB6HBD4rocrX4fNVeAr8BX4CnwFvhzgAAc4wAEOcIADHOAABzjAgUE6IPAddjApWF5P/wl8Bb4bCXy/fnYc3DDgAAc4wAEOcIADHOAABzjAAQ5wYJUOfPXN9yHenjx9ER5//V04fPJtePj4efjy8Gl48OVX4Y9/fiSPkMnsnQMCX4HvRgLf4A8BBBBAAAEEEEAAAQQQQAABBBBYMYHz8/NwdnaW3U5PT7NRyi9fvgwnJyfh+++/D0dHRyveotUh0H8CAl+Br8C3//upGiKAAAIIIIAAAggggAACCCCAQAsBgW8LFIv2noDAV+Ar8N37wwAACCCAAAIIIIAAAggggAACCAyTgMB3mP2m1uslIPAV+Ap817uPWTsCCCCAAAIIIIAAAggggAACCKyJgMB3TWCtdtAEBL4CX4HvoHdhlUcAAQQQQAABBBBAAAEEEEBgfwkIfPe377V8OgGBr8BX4Dt9//AKAggggAACCCCAAAIIIIAAAgj0mIDAt8edo2pbIyDwFfgKfLe2+9kwAggggAACCCCAAAIIIIAAAggsQ0Dguww9791VAgJfga/Ad1f3bu1CAAEEEEAAAQQQQAABBBBAYMcJCHx3vIM1byECAl+Br8B3oV3HmxBAAAEEEEAAAQQQQAABBBBAYNsEBL7b7gHb7yMBga/AV+Dbxz1TnRBAAAEEEEAAAQQQQAABBBBAYC4Bge9cRArsIQGBr8BX4LuHO74mI4AAAggggAACCCCAAAIIILALBAS+u9CL2rBqAgJfga/Ad9V7lfUhgAACCCCAAAIIIIAAAggggMBGCAh8N4LZRgZGQOAr8BX4DmynVV0EEEAAAQQQQAABBBBAAAEEEMgJrCrwPT09C4+ePAtf/OlwsLdY/9iOlL+ht7dLW8+/+y788O674fjixXB84cLwbhcvZvWP7Uj9E/gKfAW+qXuLcggggAACCCCAAAIIIIAAAggg0CsCqwp8Y4D47PmLcH7eq+YlVybWO9Y/tiPlb8jt7drWLOwdYtDbqHNsR+qfwFfgK/BN3VuUQwABBBBAAAEEEEAAAQQQQACBXhFYVeAbR/YONewtOyTWP7Yj5W/o7e3S1sGO7G0EvrEdqX8CX4GvwDd1b1EOAQQQQAABBBBAAAEEEEAAAQR6RWCVgW+vGrZgZboEvgtuojdvS23rIKdxaIa9xfNU+ALfTQW+/+4/hEv/9T+Hn/+7n4c3G9v8n/73/xz++j/9h/CTxvJmuS7Pj4+PNxLkpm4nVUjlEEAAAQQQQAABBBBAAAEEEEAAgVQCAt86qdQQNLVcfe39epbaBoHvb8OHH34YPvroo/Dxxx+HTz75JLvduHEjtN2Ojo5CvKVmfpsqV9arrPMbXYLStZb9X94Ol/7rX4f/9d+PQ99/e/Gvw1//p7fDT//n8bJV1GFTsFO3069DgtoggAACCCCAAAIIIIAAAggggMAuEBD41nsxNQRNLVdfe7+epbZB4CvwnRh9u4rwtbaOf/8fw6X/87+E/+3f/zz82//jv4S//k//MfzbFY7sLbeVGsRuqtwih4Tn374If3jwaO6vY8Yysaw/BBBAAAEEEEAAAQQQQAABBBDYLwIC33p/p4agqeXqay+eHV4Pb1+5W3vp9pVfhLcPWuYPvnM1vFWWjY9/9ovG7Wq4XVtT+pPUNgh8Bb7rD3xjuJuFvu+uLeyNoe+mgtzU7aTvruOSMch9/fp0vGDKo1gmlvWHAAIIIIAAAggggAACCCCAAAL7RaCPge/Dg0vhrXeuh4dzu+IwHLxzKbTlpHPfOqVAagiaWq5tMw8PruZ1bg1w80D38p274XIj3L185WojFI7t73fg++r+SYHgUXh97V44L56d3/8g5EHyzXB2ci+8uvBBOC2LhhDObl3IX8/ecxJOrxXPp8zNmxpKt/VH2zJz+K5hdG05ynbm/b/7Rfif1rjt1CB2U+Xa5Ju3rMvBp0vZedv1OgIIIIAAAggggAACCCCAAAIIDINA3wLfLOyNI1qrI1tnoYyjZX+2eOjZXHVqPpJarrn+EO6Gy5URu22jeiODy3fiOw/DwZVK8N0aEC/e9tQ2pIapbeVi4Ht2K4a5ReD7+GY4vvUoxMD39eMY5FYD30fhdRb8xvsY8N4MZ+EknN66F86zUHj50HeyP9qXCHzXGLrODHzXvN1NBbmp22nXb/bS1B03rqVL2dlb9SoCCCCAAAIIIIAAAggggAACCAyFQJ8C3zitQXVk7yj8LWBmzxujXienOChHyC7WA6n5SGq5Zi3K0b2xrXHE7sz6H14Plw/uLjWKt7n96vPUNrQFuanLOge+cURvDIWbI3ubzxcc6Vtt/6zHAt81B6/bCn1Tg9hNlZsl4bTXUnfc+P4uZadtz3IEEEAAAQQQQAABBBBAAAEEEBgWgX4EvpPTF9SD0MYo1jtXixGwdda3ryw/vUNqPpJarl7DELJQO4bWxSjmthG+5Xvy9pTTNsT75vy9xfNyxHD5xsT71Dakhrtt5boGvmdx1O/9OO3oSTivTPGQNylfNpruYYHQNxFNEPgKfDcy32+qkNVyqTtufE+XstVteIwAAggggAACCCCAAAIIIIAAAsMlsPXAt2VKhvGUBiXXPBDOpzmIy+6Gy805fuN6msvKt3e4T81HUstNbroyTcOdq+Htdy61jvJ9++AfGwHvpXBw0JzDt4XD5AanLkltQ1uQm7Ts1qzfi4rhbcuUDsV0D9X151M/LD+dQ1xn6p/AV+Ar8E3dW5RDAAEEEEAAAQQQQAABBBBAAIFeEdh64NtCYzLwnSwUy1RHx65idG/cSmoImlquWfPqtBQx7M1uB4fh4cH1cLuc3zcGwaNfoitH+IZ8XuPmlBZLhNypbaiGr10fdx3hW87he/a4Sa58Xs7vu1gAXK5l3r3AV+Ar8J23l3gdAQQQQAABBBBAAAEEEEAAAQR6SaAfgW/HKR0Kktk8uHfyqQ7GAelymFND0NRys2ozax7fcXvGbOKcv+Plcc09H+F74UJYNPDNf7QtD3WN8D1eSfZ4dHQU4u3GjRvZ7Y1tzaO7ze1uam7e1O3MOkBMe63LwadL2WnbsxwBBBBAAAEEEEAAAQQQQAABBIZFoB+Bb51Zygjf/B15GFoPQevr6vosNR9JLde2/fEo3/E0DZMjfD8Ml7PRvHEUcDGH8Z2WH3nr+QjfPKz9IJyePAqvr90LZ/c/CMfFtA35azfD2cm98OpCLFPQGj3PR/Nm5W7dC+dhudG9pnQQ+K4kOU8Nc1PKtR0g5i3rcvDpUnbedr2OAAIIIIAAAggggAACCCCAAALDIDDIwDeb9zf+YFkehI4C1CXCz7K3UvOR1HLlesv7OKo3C6hjeBvrW0zfMBn4HhZvqU/pUIbbozaXPwBXbqDDfWobuk7jMC5/M5xlIW0e+J7ePwnZD67V5umtBr5FoHsthrtxft/mCN+4vvHy8XbSp3dIxWNKB1M6bCQcThWyWu4PDx6F169Pq4taH8cysaw/BBBAAAEEEEAAAQQQQAABBBDYLwLbD3zzKRneas5NO/H8aviHg+IHzqYFu6Mg+FIYTYHbsTtTQ9DUctM2//Dgal7H2ny9IcRAOLIY/0BdEfiO2pa/nge/PZ/SIRvRe3M8cjc8CjH0jX8x+H1dztP7+GY4zkb4Nkbwjn70rbH8QnrA2wyFp/VHc7nAV+Db28D3+bcvsiA3HoRm3WLYG8v6QwABBBBAAAEEEEAAAQQQQACB/SKw/cC3X7xTg9zUcuttXc8D3yWC2WZQu6rnqf0h8BX49jbwTZVYOQQQQAABBBBAAAEEEEAAAQQQ2E8CAt96v6cGuanl6mvv17PUNqwqbO3DelJ7QOAr8BX4pu4tyiGAAAIIIIAAAggggAACCCCAQK8ICHzr3ZEagqaWq6+9X89S29CHoHZVdUjtAYGvwFfgm7q3KIcAAggggAACCCCAAAIIIIAAAr0iIPCtd0dqCJparr72fj1LbcOqwtY+rCe1BwS+Al+Bb+reohwCCCCAAAIIIIAAAggggAACCPSKgMC33h2pIWhqufra+/UstQ19CGpXVYfUHhD4CnwFvql7i3IIIIAAAggggAACCCCAAAIIINArAqsMfM/Pe9W0zpWJ9U8NQWO5Ibe3S1uPL14Mqwpct7qeixeTnRD4CnwFvsm7i4IIIIAAAggggAACCCCAAAIIINAnAqsKfB89eRaePX8x2BA0BqCx/rEdKX9Dbm/Xtv7w7rs7EfjGdqT+CXwFvgLf1L1FOQQQQAABBBBAAAEEEEAAAQQQ6BWBVQW+p6dnWVgaR74O9RZD3NiOlL+ht7dLW8+/+y5koe9QR/pevJjVP7Yj9U/gK/AV+KbuLcohgAACCCCAAAIIIIAAAggggECvCKwq8O1Vo1QGgSUJCHwFvgLfJXcib0cAAQQQQAABBBBAAAEEEEAAge0QEPhuh7ut9puAwFfgK/Dt9z6qdggggAACCCCAAAIIIIAAAgggMIWAwHcKGIv3moDAV+Ar8N3rQ4DGI4AAAggggAACCCCAAAIIIDBcAgLf4fadmq+PgMBX4CvwXd/+Zc0IIIAAAggggAACCCCAAAIIILBGAgLfNcK16sESEPgKfAW+g919VRwBBBBAAAEEEEAAAQQQQACB/SYg8N3v/tf6dgICX4GvwLd937AUAQQQQAABBBBAAAEEEEAAAQR6TkDg2/MOUr2tEBD4CnwFvlvZ9WwUAQQQQAABBBBAAAEEEEAAAQSWJSDwXZag9+8iAYGvwFfgu4t7tjYhgAACCCCAAAIIIIAAAgggsAcEBL570Mma2JmAwFfgK/DtvNt4AwIIIIAAAggggAACCCCAAAII9IGAwLcPvaAOfSMg8BX4Cnz7tleqDwIIIIAAAggggAACCCCAAAIIJBEQ+CZhUmjPCAh8Bb4C3z3b6TUXAQQQQAABBBBAAAEEEEAAgV0hIPDdlZ7UjlUSEPgKfDcS+H797Di4YcABDnCAAxzgAAc4wAEOcIADHODAKh346pvvQ7w9efoiPP76u3D45Nvw8PHz8OXh0/Dgy6/CH//8SB4hk9k7BwS+At+NBL6vXr0KbhhwgAMc4AAHOMABDnCAAxzgAAc4sEoHfvzxxxBvL1++DD/88EOWcbx48SIcHR2F58+fh6dPn8ojZDJ754DAV+Ar8HXg27sD3yovLqzLxSoHOMABDnCAAxzgAAc4wIHtOSDw3R573veXvcBX4CvwFfgKfDnAAQ5wgAMc4AAHOMABDnCAA4N0QODb39BRILy9vhH4CnwFvk7qgzypO3Fs78SBPfYc4AAHOMABDnCAAxzgQF8cEPhysS8u9qkeAl+Br8BX4Cvw5QAHOMABDnCAAxzgAAc4wAEODNIBga/At09Ba1/qIvAV+Ap8ndQHeVLvy0FUPVxccIADHOAABzjAAQ5wgAMc2J4DAt/tsed9f9kLfAW+Al+Br8CXAxzgAAc4wAEOcIADHOAABzgwSAcEvv0NHQXC2+sbga/AV+DrpD7Ik7oTx/ZOHNhjzwEOcIADHOAABzjAAQ70xQGBLxf74mKf6iHwFfgKfAW+Al8OcIADHOAABzjAAQ5wgAMc4MAgHRD4Cnz7FLT2pS4CX4GvwNdJfZAn9b4cRNXDxQUHOMABDnCAAxzgAAc4wIHtOSDw3R573veXvcBX4CvwFfgKfDnAAQ5wgAMc4AAHOMABDnCAA4N0QODb39BRILy9vhH4CnwFvk7qgzypO3Fs78SBPfYc4AAHOMABDnCAAxzgQF8cEPhysS8u9qkeAl+Br8BX4Cvw5QAHOMABDnCAAxzgAAc4wAEODNKBVQW+P7x8GR4+fhq++NPhYG+x/rEdKcHj0Nvbpa2vvvkmnPzyl+H44sVwfOHC8G4XL2b1j+1I6dtYRuAr8BX4OqknHzBSDyzK+YaVAxzgAAc4wAEOcIADHOAABzbhwKoC3xggPnv+Ipyfh0H+xXrH+sd2pHAfcnu7tjULe4cY9DbqHNuR0rexjMBX4CvwFfgmHzBSDyzKubDjAAc4wAEOcIADHOAABzjAgU04sKrAN47sHWrYWybUsf6xHSnch97eLm0d7MjeRuAb25HSt7GMwFfgK/AV+CYfMFIPLMq5sOMABzjAAQ5wgAMc4AAHOMCBTTiwysC3DE6HfN8l8B1yO2PdU9s6yGkcmmFv8Tx1nxL4CnwFvgJfgS8HOMABDnCAAxzgAAc4wAEOcGCQDgh867Ftaggayw39L7WtAt/fhg8//DB89NFH4eOPPw6ffPJJdrtx40Zoux0dHYV4Oz4+7tWtrFdZ5zfe3NFQd1a7+tYpqd9AVMs9fXYU/vDg0dzJ0mOZWLb6Xo99k8wBDnCAAxzgAAc4wAEOcIADHNh9BwS+9dg2NQQV+A7wx9suXEjOvozw3dEweBcC3xjkvn59Wj9ytTyLZWJZJ/LdP5HrY33MAQ5wgAMc4AAHOMABDnCAA1UHBL71oGQjge/h9fD2lbu1Dd++8ovw9kHLqOE7V8NbZdn4+Ge/aNyuhtu1NaU/SW2rEb5G+IZZo2aH9NouBL5dvm1K3cmrJwWPXSRwgAMc4AAHOMABDnCAAxzgAAeG7UAfA9+HB5fCW+9cDw/nZpeH4eCdS6EtJ5371ikFUvORLplLc1MPD67mdW4NcPNA9/Kdu+FyI9y9fOVqIxSO7e934Pvq/knR/Efh9bV74bx4dn7/g5AHyTfD2cm98OrCB+G0LBpCOLtVjCDO3nMSTq+tZkRx6vHKCF8jfDcyH0eqkNVyXQ4+qQe06vo9HvZJXf/pPw5wgAMc4AAHOMABDnCAAxzoW+Cbhb1xRGt1ZGszMa0+j6Nlf7Z46FldVXycmo90yVzq27gbLldG7LaN6o0MLt+J7zoMB1cqwXdrQLx421PbuswI3xj4nt2KYW4R+D6+GY5vPQox8H39OAa51cD3UXidBb/xPga8N8NZOAmnt+6F8ywUXj70TT3mCXwFvgJfE/ObDoMDHOAABzjAAQ5wgAMc4AAHODBIB/oU+MZpDaoje0fhb5GYZs8bo14npzgoR8jWY9bUZ6kh6KKBbzm6N7Y1jtidWf/D6+Hywd2lRvHOandqWzca+MYRvTEUbo7sbT7PAuHuAbDA92j0Q3N+tK0Hv6qXKmS1XJeDT+pOXl2/x74J5gAHOMABDnCAAxzgAAc4wAEODNuBfgS+k9MX1IPQxijWO1eLEbD1OPP2leWnd0jNR7pkLtVaZqF2DK2LUcxtI3zL8nl7ymkb4n1z/t7ieTliuHxj4n1qWzcZ+J7FUb/3H4UQTsJ5ZYqHvEn5stF0DwuEvqnHq10e4Xt0dBTiTeAr8B3kt5SpO7Fyw7440X/6jwMc4AAHOMABDnCAAxzgwOIObD3wbZmSYTylQZlc5oFwPs1BXHY3XG7O8RvX01xWvr3DfWoIumjgW5um4c7V8PY7l1pH+b598I+NgPdSODhozuHbwmENbV048L0Vg9tpfzG8bZnSoZjuobrNfOqH7qN5q+soH6ceKwS+pnQwpYP/tiMQ5wAHOMABDnCAAxzgAAc4wAEODNKBrQe+LXngZOA7WSiWqY6OXcXo3riVdQe+1WkpYtib3Q4Ow8OD6+F2DLInRv4aIliXAAAgAElEQVSWI3xDPq9xc0qLJULu1LaWYeki94vO4Xv2eLLP8yXl/L6LBcAC33x0rxG+PRjde3x8vNBJo8u3Tak7eeqOodzi365ihx0HOMABDnCAAxzgAAc4wAEObMqBfgS+Had0KLLAbB7cO/lUB9Xwd1pUmLI8NR/pkrlM2+6seXzH7RmziXP+jpfHtfZ8hO+FC2HRwDf/0bY81DXC93glg03LqRzKe1M69CD0XeRA3+Xgk3pAW6Qe3uNChQMc4AAHOMABDnCAAxzgAAc40E8H+hH41iPRlBG++TvyMLQegtbX1fVZaj7SJXNp1mE8ync8TcPkCN8Pw+VsNG8cBVzMYXyn5Ufeej7CNw9rPwinJ4/C62v3wtn9D8JxMW1D/trNcHZyL7y6EMsUpEbP89G8Wblb98J5WG50bxyhnHocMqWDKR1WkrLHUbyzbqlCVst1OfikHtCq6/e4nydr/aJfOMABDnCAAxzgAAc4wAEOcCDVgUEGvtm8v/EHy/IgdBSgLhF+lqFsaj7SJXMp1x3v46jeLKCO4W2sb5zHt8OUDmW4PWpz+QNw1Y0kPk5t6yJTOeTvuRnOspA2D3xP75+E7AfXavP0VgPfItC9FsPdOL9vc4RvXN94+SL1St0vBL4C35lB7awQt8trqUJWy/3hwaPw+vXp3N08lollq+/12MUBBzjAAQ5wgAMc4AAHOMABDnBg9x3YfuCbT8nwVnNu2onnV8M/HBQ/cDYt2B0FwZfCweHcOKS1QGoIumjgW2704cHVvI5F4Fsuj4FwZDH+gbpiDt9R2/LX8+C351M6ZCN6b45H7oZHIYa+8S8Gv6/LeXof3wzH2Qjfxgje0Y++NZZfWGz+XiN8x/P3msN3zsjbLqHtMmUXOck+fXaUBbnxIDTrFsPeWHaRbXjP7p/89bE+5gAHOMABDnCAAxzgAAc4sLsObD/wLaPOftxvKvBdTWt7HvguEcwuMno35T2pxzIjfI3w7e0I31SJldvdE7e+1bcc4AAHOMABDnCAAxzgAAc4MMsBgW89eh1W4Fuve9dnqW1NCVKHUmbWvlB9TeAr8BX4vnLyrB4UPOYDBzjAAQ5wgAMc4AAHOMABDgzFAYFvPSZNDUFjuaH/pbZ1KGFuSj1T90uBr8BX4CvwNR0GBzjAAQ5wgAMc4AAHOMABDnBgkA4IfOuxbWoIKvBdfB7dlGB2XWUEvuN5fN94c0dD3VntWma+3XW8N1VI5XyLzAEOcIADHOAABzjAAQ5wgAMc4ECqAwJfge88V9YVvm5jvfPaWr5uhO+OhsHrCG2XWWcpnHsnbQ5wgAMc4AAHOMABDnCAAxzgAAdW5cAqA9/z83p4OrRnsf5dRvgOub1d2np88WLYRji78m1evJg8Cl/gK/A1pYP/tpN8wFjVCdl6XNxxgAMc4AAHOMABDnCAAxzgwCocWFXg+/Dx0/Ds+Ysw1BA01jvWP7YjheuQ29u1rSe//OVOBL6xHSl9G8sIfAW+Al+Bb/IBI/XAopwLNw5wgAMc4AAHOMABDnCAAxzYhAOrCnx/ePkyC0vjCNmh3mKIG9uRwn3o7e3S1lfffBOy0HeoI30vXszqH9uR0rexjMBX4CvwFfgmHzBSDyzKubDjAAc4wAEOcIADHOAABzjAgU04sKrAdxN1tQ37xKYcEPgKfAW+Al+BLwc4wAEOcIADHOAABzjAAQ5wYJAOCHyFqJsKUYe0HYGvwFfg66Q+yJP6kA606uoChAMc4AAHOMABDnCAAxzgwHocEPiuhytfh81V4CvwFfgKfAW+HOAABzjAAQ5wgAMc4AAHOMCBQTog8B12MClYXk//CXwFvgJfJ/VBntSdFNZzUsAVVw5wgAMc4AAHOMABDnBgSA4IfPk6JF83VVeBr8BX4CvwFfhygAMc4AAHOMABDnCAAxzgAAcG6YDAV+C7qRB1SNsR+Ap8Bb5O6oM8qQ/pQKuuLkA4wAEOcIADHOAABzjAAQ6sxwGB73q48nXYXAW+Al+Br8BX4MsBDnCAAxzgAAc4wAEOcIADHBikAwLfYQeTguX19J/AV+Ar8HVSH+RJ3UlhPScFXHHlAAc4wAEOcIADHOAAB4bkgMCXr0PydVN1FfgKfAW+Al+BLwc4wAEOcIADHOAABzjAAQ5wYJAOCHwFvpsKUYe0HYGvwFfg66Q+yJP6kA606uoChAMc4AAHOMABDnCAAxzgwHocEPiuhytfh81V4CvwFfgKfAW+HOAABzjAAQ5wgAMc4AAHOMCBQTog8B12MClYXk//CXwFvhsJfL9+dhzcMOAABzjAAQ5wgAMc4AAHOMABDnBglQ589c33Id6ePH0RHn/9XTh88m14+Ph5+PLwaXjw5Vfhj39+JI+QyeydAwJfge9GAt/gDwEEEEAAAQQQQAABBBBAAAEEEFgxgfPz83B2dpbdTk9Ps1HKL1++DCcnJ+H7778PR0dHK96i1SHQfwICX4GvwLf/+6kaIoAAAggggAACCCCAAAIIIIBACwGBbwsUi/aegMBX4Cvw3fvDAAAIIIAAAggggAACCCCAAAIIDJOAwHeY/abW6yUg8BX4CnzXu49ZOwIIIIAAAggggAACCCCAAAIIrImAwHdNYK120AQEvgJfge+gd2GVRwABBBBAAAEEEEAAAQQQQGB/CQh897fvtXw6AYGvwFfgO33/8AoCCCCAAAIIIIAAAggggAACCPSYgMC3x52jalsjIPAV+Ap8t7b72TACCCCAAAIIIIAAAggggAACCCxDQOC7DD3v3VUCAl+Br8B3V/du7UIAAQQQQAABBBBAAAEEEEBgxwkIfHe8gzVvIQICX4GvwHehXcebEEAAAQQQQAABBBBAAAEEEEBg2wQEvtvuAdvvIwGBr8BX4NvHPVOdEEAAAQQQQAABBBBAAAEEEEBgLgGB71xECuwhAYGvwFfgu4c7viYjgAACCCCAAAIIIIAAAgggsAsEBL670IvasGoCAl+Br8B31XuV9SGAAAIIIIAAAggggAACCCCAwEYICHw3gtlGBkZA4CvwFfgObKdVXQQQQAABBBBAAAEEEEAAAQQQyAmsKvA9PT0Lj548C1/86XCwt1j/2I6Uv6G3t0tbz7/7Lvzw7rvh+OLFcHzhwvBuFy9m9Y/tSP0T+Ap8Bb6pe4tyCCCAAAIIIIAAAggggAACCCDQKwKrCnxjgPjs+Ytwft6r5iVXJtY71j+2I+VvyO3t2tYs7B1i0Nuoc2xH6p/AV+Ar8E3dW5RDAAEEEEAAAQQQQAABBBBAAIFeEVhV4BtH9g417C07JNY/tiPlb+jt7dLWwY7sbQS+sR2pfwJfga/AN3VvUQ4BBBBAAAEEEEAAAQQQQAABBHpFYJWBb68atmBlugS+C26iN29Lbesgp3Fohr3F81T4Al+Br8A3dW9RDgEEEEAAAQQQQAABBBBAAAEEekVA4FvvjtQQNLVcfe39epbaBoHvb8OHH34YPvroo/Dxxx+HTz75JLvduHEjtN2Ojo5CvB0fH/fqVtarvH/jzR0NdWe1q2+dssgh4fm3L8IfHjyaO1l6LBPL+kMAAQQQQAABBBBAAAEEEEAAgf0iIPCt93dqCJparr72fj1LbYPAV+AbZoWoQ3ptFwLfGOS+fn0692gSy8Sy/hBAAAEEEEAAAQQQQAABBBBAYL8ICHzr/Z0agqaWq6+9eHZ4Pbx95W7tpdtXfhHePmiZP/jO1fBWWTY+/tkvGrer4XZtTelPUtsg8BX4CnzXNFw7fXcdl0zdceM7upQdb8EjBBBAAAEEEEAAAQQQQAABBBAYMoE+Br4PDy6Ft965Hh7OBXsYDt65FNpy0rlvnVIgNR9JLde2mYcHV/M6twa4eaB7+c7dcLkR7l6+crURCsf29zvwfXX/pEDwKLy+di+cF8/O738Q8iD5Zjg7uRdeXfggnJZFQwhnty7kr2fvOQmn14rnU+bmTQ2l2/qjbZk5fHd0uoddGOHb5eDTpWzbjmAZAggggAACCCCAAAIIIIAAAggMj0DfAt8s7I0jWqsjW2dhjaNlf7Z46NlcdWo+klquuf4Q7obLlRG7baN6I4PLd+I7D8PBlUrw3RoQL9721Dakhqlt5WLge3YrhrlF4Pv4Zji+9SjEwPf14xjkVgPfR+F1FvzG+xjw3gxn4SSc3roXzrNQePnQd7I/2pcIfAW+G5mAuV2/2UtTd9y4li5lZ2/VqwgggAACCCCAAAIIIIAAAgggMBQCfQp847QG1ZG9o/C3gJk9b4x6nZzioBwhu1gPpOYjqeWatShH98a2xhG7M+t/eD1cPri71Cje5varz1Pb0Bbkpi7rHPjGEb0xFG6O7G0+X3Ckb7X9sx4LfAW+At9Ze4jXEEAAAQQQQAABBBBAAAEEEECgtwT6EfhOTl9QD0Ibo1jvXC1GwNax3r6y/PQOqSFoarl6DUPIQu0YWhejmNtG+JbvydtTTtsQ75vz9xbPyxHD5RsT71PbkBrutpXrGviexVG/9+PvTJ2E88oUD3mT8mWj6R4WCH0T0QSBr8BX4Ju6tyiHAAIIIIAAAggggAACCCCAAAK9IrD1wLdlSobxlAYlqjwQzqc5iMvuhsvNOX7jeprLyrd3uE8NQVPLTW66Mk3Dnavh7XcutY7yffvgHxsB76VwcNCcw7eFw+QGpy5JbUNbkJu07FYMbqf9xfC2ZUqHYrqH6vrzqR+Wn84hrjP1T+Ar8BX4pu4tyiGAAAIIIIAAAggggAACCCCAQK8IbD3wbaExGfhOFoplqqNjVzG6N24lNQRNLdeseXVaihj2ZreDw/Dw4Hq4Xc7vG4Pg0S/RlSN8Qz6vcXNKiyVC7tQ2VMPXro+7jvAt5/A9e9wkVz4v5/ddLAAu1zLvXuAr8BX4zttLvI4AAggggAACCCCAAAIIIIAAAr0k0I/At+OUDgXJbB7cO/lUB+OAdDnMqSFoarlZtZk1j++4PWM2cc7f8fK45p6P8L1wISwa+OY/2paHukb4Hq8kezw6OgrV2xtv7mioO6tdx8ergbmq9cw6QEx7rcvBp0vZaduzHAEEEEAAAQQQQAABBBBAAAEEhkWgH4FvnVnKCN/8HXkYWg9B6+vq+iw1H0kt17b98Sjf8TQNkyN8PwyXs9G8cRRwMYfxnZYfeev5CN88rP0gnJ48Cq+v3Qtn9z8Ix8W0DflrN8PZyb3w6kIsU9AaPc9H82blbt0L52G50b2mdBD4riQ5X1XYG9ezyF+Xg0+XsovUxXsQQAABBBBAAAEEEEAAAQQQQKB/BAYZ+Gbz/sYfLMuD0FGAukT4WfZMaj6SWq5cb3kfR/VmAXUMb2N9i+kbJgPfw+It9SkdynB71ObyB+DKDXS4T21D12kcxuVvhrMspM0D39P7JyH7wbXaPL3VwLcIdK/FcDfO79sc4RvXN14+3k769A6peEzpsKOjf1cZ1q5iXalCVsv94cGj8Pr1aXVR6+NYJpb1hwACCCCAAAIIIIAAAggggAAC+0Vg+4FvPiXDW825aSeeXw3/cFD8wNm0YHcUBF8KoylwO3ZnagiaWm7a5h8eXM3rWJuvN4QYCEcW4x+oKwLfUdvy1/Pgt+dTOmQjem+OR+6GRyGGvvEvBr+vy3l6H98Mx9kI38YI3tGPvjWWX0gPeJuh8LT+aC4X+Ap8NzIauCleyvPn377Igtx4EJp1i2FvLOsPAQQQQAABBBBAAAEEEEAAAQT2i8D2A99+8U4NclPLrbd1PQ98lwhmm0Htqp6n9ofAV+Db28A3VWLlEEAAAQQQQAABBBBAAAEEEEBgPwkIfOv9nhrkpparr71fz1LbsKqwtQ/rSe0Bga/AV+CburcohwACCCCAAAIIIIAAAggggAACvSIg8K13R2oImlquvvZ+PUttQx+C2lXVIbUHBL4CX4Fv6t6iHAIIIIAAAggggAACCCCAAAII9IqAwLfeHakhaGq5+tr79Sy1DasKW/uwntQeEPgKfAW+qXuLcggggAACCCCAAAIIIIAAAggg0CsCAt96d6SGoKnl6mvv17PUNvQhqF1VHVJ7QOAr8BX4pu4tyiGAAAIIIIAAAggggAACCCCAQK8IrDLwPT/vVdM6VybWPzUEjeWG3N4ubT2+eDGsKnDd6nouXkx2QuAr8BX4Ju8uCiKAAAIIIIAAAggggAACCCCAQJ8IrCrwffTkWXj2/MVgQ9AYgMb6x3ak/A25vV3b+sO77+5E4Bvbkfon8BX4CnxT9xblEEAAAQQQQAABBBBAAAEEEECgVwRWFfienp5lYWkc+TrUWwxxYztS/obe3i5tPf/uu5CFvkMd6XvxYlb/2I7UP4GvwFfgm7q3KIcAAggggAACCCCAAAIIIIAAAr0isKrAt1eNUhkEliQg8BX4CnyX3Im8HQEEEEAAAQQQQAABBBBAAAEEtkNA4Lsd7rbabwICX4GvwLff+6jaIYAAAggggAACCCCAAAIIIIDAFAIC3ylgLN5rAgJfga/Ad68PARqPAAIIIIAAAggggAACCCCAwHAJCHyH23dqvj4CAl+Br8B3ffuXNSOAAAIIIIAAAggggAACCCCAwBoJCHzXCNeqB0tA4CvwFfgOdvdVcQQQQAABBBBAAAEEEEAAAQT2m4DAd7/7X+vbCQh8Bb4C3/Z9w1IEEEAAAQQQQAABBBBAAAEEEOg5AYFvzztI9bZCQOAr8BX4bmXXs1EEEEAAAQQQQAABBBBAAAEEEFiWgMB3WYLev4sEBL4CX4HvLu7Z2oQAAggggAACCCCAAAIIIIDAHhAQ+O5BJ2tiZwICX4GvwLfzbuMNCCCAAAIIIIAAAggggAACCCDQBwIC3z70gjr0jYDAV+Ar8O3bXqk+CCCAAAIIIIAAAggggAACCCCQREDgm4RJoT0jIPAV+Ap892yn11wEEEAAAQQQQAABBBBAAAEEdoWAwHdXelI7VklA4Cvw3Ujg+/Wz4+CGAQc4wAEOcIADHOAABzjAAQ5wgAOrdOCrb74P8fbk6Yvw+OvvwuGTb8PDx8/Dl4dPw4Mvvwp//PMjeYRMZu8cEPgKfDcS+L569Sq4YcABDnCAAxzgAAc4wAEOcIADHODAKh348ccfQ7y9fPky/PDDD1nG8eLFi3B0dBSeP38enj59Ko+QyeydAwJfga/A14Fv7w58q7y4sC4XqxzgAAc4wAEOcIADHOAAB7bngMB3e+x531/2Al+Br8BX4Cvw5QAHOMABDnCAAxzgAAc4wAEODNIBgW9/Q0eB8Pb6RuAr8BX4OqkP8qTuxLG9Ewf22HOAAxzgAAc4wAEOcIADfXFA4MvFvrjYp3oIfAW+Al+Br8CXAxzgAAc4wAEOcIADHOAABzgwSAcEvgLfPgWtfamLwFfgK/B1Uh/kSb0vB1H1cHHBAQ5wgAMc4AAHOMABDnBgew4IfLfHnvf9ZS/wFfgKfAW+Al8OcIADHOAABzjAAQ5wgAMc4MAgHRD49jd0FAhvr28EvgJfga+T+iBP6k4c2ztxYI89BzjAAQ5wgAMc4AAHONAXBwS+XOyLi32qh8BX4CvwFfgKfDnAAQ5wgAMc4AAHOMABDnCAA4N0QOAr8O1T0NqXugh8Bb4CXyf1QZ7U+3IQVQ8XFxzgAAc4wAEOcOD/b+9Odts4EgAM5yHzAEEOOUkvYB/8CAkgwHoK+0DApxlvF/liGZijjMmMB4EWJ14iO5Qda6lBdbPFZouiqikuXeRHgJBINcmuv/8mhd/lEgc4wAEOLM8BwXd57HnfXfaCr+Ar+Aq+gi8HOMABDnCAAxzgAAc4wAEOcCBLBwTf7kZHQXh5x0bwFXwFXx/qWX6o++BY3gcH9thzgAMc4AAHOMABDnCAA11xQPDlYldc7NJ+CL6Cr+Ar+Aq+HOAABzjAAQ5wgAMc4AAHOMCBLB2YVfD98vVr2D96F/7934Nsr3H/4zhSwmPu420z1m/v34eTn38O/c3N0N/YyO+6uVnsfxxHyrGN2wi+gq/g60M9+Q0j9Y3Fdv6FlQMc4AAHOMABDnCAAxzgAAcW4cCsgm8MiB8+fg4XFyHLS9zvuP9xHCnccx5v27EWsTfH0NvY5ziOlGMbtxF8BV/BV/BNfsNIfWOxnV/sOMABDnCAAxzgAAc4wAEOcGARDswq+MaZvbnG3qpQx/2P40jhnvt424w125m9jeAbx5FybOM2gq/gK/gKvslvGKlvLLbzix0HOMABDnCAAxzgAAc4wAEOLMKBWQbfKpzm/LVN8M15nHHfU8ea5TIOzdg7uJ16Tgm+gq/gK/gKvhzgAAc4wAEOcIADHOAABzjAgSwdEHxHs21qBI3b5X5JHavg+8/w+PHj8OTJk/D06dPw7Nmz4vr8+fMw7np8fBzitd/vd+pa7Vf19bvvVzTqThpX1w5K6r9A1Ld79+E4/Prm8MbF0uM2cdv6Y33vX5I5wAEOcIADHOAABzjAAQ5wgAOr74DgO5ptUyOo4JvhH2/b2EhuX2b4rmgMXoXgG0Pu6enZ6DvXmFtxm7itD/LV/yB3jB1jDnCAAxzgAAc4wAEOcIADHKg7IPiOhpKFBN+DR+HO/VcjL/zy/k/hTm/MrOHd7fBDtW38/sefGtft8HLkmdJvpI7VDF8zfMOkWbM5/WwVgm+bf21KPcnrHwq+90sCBzjAAQ5wgAMc4AAHOMABDnAgbwe6GHz3e/fCD3cfhf0b2+VB6N29F8Z10hsfes0GqX2kTXNpvtR+b7vc57EBtwy6W7uvwlYj7m7d325E4Tj+bgffb69PBsM/DKcP9sLF4NbF64ehDMk74fxkL3zbeBjOqk1DCOcvBjOIi8echLMHs5lRnPp+ZYavGb4LWY8jVcj6dm3efFLf0OrP7/u8P9QdP8ePAxzgAAc4wAEOcIADHOAAB7oWfIvYG2e01me2Notp/XacLfvj9NGz/lTx+9Q+0qa5jL7Gq7BVm7E7blZvZLC1Gx91EHr3a+F7bCCefuypY73NDN8YfM9fxJg7CL5HO6H/4jDE4Ht6FENuPfgehtMi/MavMfDuhPNwEs5e7IWLIgrfPvqmvucJvoKv4GthfsthcIADHOAABzjAAQ5wgAMc4AAHsnSgS8E3LmtQn9l7GX8HxbS43Zj1enWJg2qG7GhmTb2VGkGnDb7V7N441jhjd+L+HzwKW71Xt5rFO2ncqWNdaPCNM3pjFG7O7G3eLoJw+wAs+JZ/UC7+4TZ/tK0Df1UvVcj6dm3efFJP8vrz+96/BHOAAxzgAAc4wAEOcIADHOAAB/J2oBvB9+ryBaMhtDGLdXd7MAN2NGe+vH/75R1S+0ib5lLfyyJqx2g9mMU8boZvtX05nmrZhvi1uX7v4HY1Y7h6YOLX1LEuMviex1m/rw9DCCfhorbEQzmk8r7L5R6miL6p71dm+Jrha4avf8XN8l9xU9/kbJf3L2+On+PHAQ5wgAMc4AAHOMABDkxyYOnBd8ySDMMlDapyWQbhcpmDeN+rsNVc4zc+T/O+6uEtvqZG0GmD78gyDbvb4c7de2Nn+d7p/asReO+FXq+5hu8YDnMY69TB90UMt9ddYrwds6TDYLmH+muWSz+0n81bf47q+0nnQv1ngq/gK/gKvoIvBzjAAQ5wgAMc4AAHOMABDnAgSweWHnzH9MCrwffqRnGb+uzYWczuja8y7+BbX5Yixt7i2jsI+71H4WUM2Vdm/lYzfEO5rnFzSYtbRO7UsVaxdJqv067he3509ZiX91Tr+04XgOtRd9L3gq/gK/j6UM/yQ33SG5ufmQHAAQ5wgAMc4AAHOMABDnBgPRzoRvBtuaTDoAUW6+Dulksd1OPvdakw5f7UCDr9DN/hXkxax3c4niGbuObv8P74PB2f4buxEaYNvuUfbSujrhm+/Zm0x7hub/1qDV9r+AqaojYHOMABDnCAAxzgAAc4wAEOcGAFHehG8B1G0Phdygzf8hFlDB2NoKPP1fbWIoLvcJbvcJmGqzN8H4etYjZvnAU8WMN4d8wfeev4DN8y1j4MZyeH4fTBXjh//TD0B8s2lD/bCecne+HbRtxmcLQub5ezeYvtXuyFi3C72b1xhnLqP2SZ4WuG70wqe/+GqJwqZH27Nv/alPqGVn9+36/Hv/Y6zo4zBzjAAQ5wgAMc4AAHOMCB1XUgy+BbrPsb/2BZGUIvA+ot4mcVhlP7SJvmUj13/Bpn9RaBOsbbuL9xHd8WSzpUcftyzNUfgKu/SOL3qWOdZimH8jE74byItGXwPXt9Eoo/uDayTm89+A6C7oMYd+P6vs0ZvvH5hvdPs1+p72WCr+Db2eD765vDcHp6duNpHreJ26ZKb7vV/aB3bB1bDnCAAxzgAAc4wAEOcIAD6+XA8oNvuSTDD821aa/c3g7/6A3+wNl1YfcyBN8LvYMbc8jYDVIj6LTBt3rR/d52uY+D4FvdH4NwZDH8A3WDNXwvx1b+vAy/HV/SoZjRuzOcuRsOQ4y+8RLD72m1Tu/RTugXM3wbM3gv/+hb4/6N6dbvNcPXkg4Libg3zeqt/3yaD9x3H46LkBvfhCZdY+yN207zGh6zXr8ION6ONwc4wAEOcIADHOAABzjAgdVyYPnBt0qd3fi6qOA7m9F2PPjeIsxOM3s35TGp719m+Jrhu5A4nCqk7Vbrg9fxdDw5wAEOcIADHOAABzjAAQ5wYJ4OCL6j6TWv4Du6721vpY41JaTmsk3quST4Cr6C7wouWp/6BmA7v3hxgAMc4AAHOMABDnCAAxzgQM4OCL6jmTQ1gsbtcr+kjjWXmJuyn6nnquAr+Aq+gq/lMDjAAQ5wgAMc4AAHOMABDnCAA1k6IPiOZtvUCCr4Tr+ObkqYndc2gu9wHd/vvl/RqDtpXPX1c7vwfaqQtvMvyxzgAAc4wAEOcIADHOAABzjAAQ6kOiD4Cr43uTKv+LqM571prNXPzfBd0Rjchchb34dKOF99aHOAAxzgAAc4wAEOcIADHOAABzgwKwdmGXwvLkbjacVDihoAABF0SURBVG634v63meGb83jbjLW/uRmWEWdn/pqbm8mz8AVfwdeSDv7bTvIbxqw+kD2PX+44wAEOcIADHOAABzjAAQ5wYBYOzCr47h+9Cx8+fg65RtC433H/4zhSuOY83rZjPfn555UIvnEcKcc2biP4Cr6Cr+Cb/IaR+sZiO7+4cYADHOAABzjAAQ5wgAMc4MAiHJhV8P3y9WsRS+MM2VyvMeLGcaRwz328bcb67f37UETfXGf6bm4W+x/HkXJs4zaCr+Ar+Aq+yW8YqW8stvOLHQc4wAEOcIADHOAABzjAAQ4swoFZBd9F7KvXcE4sygHBV/AVfAVfwZcDHOAABzjAAQ5wgAMc4AAHOJClA4KviLqoiJrT6wi+gq/g60M9yw/1nN5o7atfQDjAAQ5wgAMc4AAHOMABDszHAcF3Plz5mjdXwVfwFXwFX8GXAxzgAAc4wAEOcIADHOAABziQpQOCb95hUliez/ETfAVfwdeHepYf6j4U5vOhgCuuHOAABzjAAQ5wgAMc4EBODgi+fM3J10Xtq+Ar+Aq+gq/gywEOcIADHOAABzjAAQ5wgAMcyNIBwVfwXVREzel1BF/BV/D1oZ7lh3pOb7T21S8gHOAABzjAAQ5wgAMc4AAH5uOA4DsfrnzNm6vgK/gKvoKv4MsBDnCAAxzgAAc4wAEOcIADHMjSAcE37zApLM/n+Am+gq/g60M9yw91Hwrz+VDAFVcOcIADHOAABzjAAQ5wICcHBF++5uTrovZV8BV8BV/BV/DlAAc4wAEOcIADHOAABzjAAQ5k6YDgK/guKqLm9DqCr+Ar+PpQz/JDPac3WvvqFxAOcIADHOAABzjAAQ5wgAPzcUDwnQ9XvubNVfAVfAVfwVfw5QAHOMABDnCAAxzgAAc4wAEOZOmA4Jt3mBSW53P8BF/BdyHB948P/eCKAQc4wAEOcIADHOAABzjAAQ5wgAOzdOD393+FeH377nM4+uNTOHj7Z9g/+hh+O3gX3vz2e/jP/w71CE1m7RwQfAXfhQTf4IIAAggggAACCCCAAAIIIIAAAgjMmMDFxUU4Pz8vrmdnZ8Us5a9fv4aTk5Pw119/hePj4xm/oqdDoPsEBF/BV/Dt/nlqDxFAAAEEEEAAAQQQQAABBBBAYAwBwXcMFHetPQHBV/AVfNf+bQAABBBAAAEEEEAAAQQQQAABBPIkIPjmedzs9XwJCL6Cr+A733PMsyOAAAIIIIAAAggggAACCCCAwJwICL5zAutpsyYg+Aq+gm/Wp7CdRwABBBBAAAEEEEAAAQQQQGB9CQi+63vsjfx6AoKv4Cv4Xn9++AkCCCCAAAIIIIAAAggggAACCHSYgODb4YNj15ZGQPAVfAXfpZ1+XhgBBBBAAAEEEEAAAQQQQAABBG5DQPC9DT2PXVUCgq/gK/iu6tltXAgggAACCCCAAAIIIIAAAgisOAHBd8UPsOFNRUDwFXwF36lOHQ9CAAEEEEAAAQQQQAABBBBAAIFlExB8l30EvH4XCQi+gq/g28Uz0z4hgAACCCCAAAIIIIAAAggggMCNBATfGxHZYA0JCL6Cr+C7hie+ISOAAAIIIIAAAggggAACCCCwCgQE31U4isYwawKCr+Ar+M76rPJ8CCCAAAIIIIAAAggggAACCCCwEAKC70Iwe5HMCAi+gq/gm9lJa3cRQAABBBBAAAEEEEAAAQQQQKAkMKvge3Z2Hg7ffgj//u9Btte4/3EcKZfcx9tmrBefPoUvv/wS+pubob+xkd91c7PY/ziO1IvgK/gKvqlni+0QQAABBBBAAAEEEEAAAQQQQKBTBGYVfGNA/PDxc7i46NTwkncm7nfc/ziOlEvO42071iL25hh6G/scx5F6EXwFX8E39WyxHQIIIIAAAggggAACCCCAAAIIdIrArIJvnNmba+ytDkjc/ziOlEvu420z1mxn9jaCbxxH6kXwFXwF39SzxXYIIIAAAggggAACCCCAAAIIINApArMMvp0a2JQ70yb4TvkSnXlY6lizXMahGXsHt1PhC76Cr+CberbYDgEEEEAAAQQQQAABBBBAAAEEOkVA8B09HKkRNHW70Wfv1q3UMQi+/wyPHz8OT548CU+fPg3Pnj0rrs+fPw/jrsfHxyFe+/1+p67VflVfv/t+RaPupHF17aBM85bw8c/P4dc3hzculh63idu6IIAAAggggAACCCCAAAIIIIDAehEQfEePd2oETd1u9Nm7dSt1DIKv4BsmRdScfrYKwTeG3NPTsxvfTeI2cVsXBBBAAAEEEEAAAQQQQAABBBBYLwKC7+jxTo2gqduNPvvg1sGjcOf+q5Efvbz/U7jTG7N+8O52+KHaNn7/40+N63Z4OfJM6TdSxyD4Cr6C75yma6efrsMtU0/c+Ig22w5fwXcIIIAAAggggAACCCCAAAIIIJAzgS4G3/3evfDD3Udh/0awB6F3914Y10lvfOg1G6T2kdTtxr3Mfm+73OexAbcMulu7r8JWI+5u3d9uROE4/m4H32+vTwYIDsPpg71wMbh18fphKEPyTjg/2QvfNh6Gs2rTEML5i43y58VjTsLZg8Hta9bmTY3S447HuPus4buiyz2swgzfNm8+bbYddyK4DwEEEEAAAQQQQAABBBBAAAEE8iPQteBbxN44o7U+s3US1jhb9sfpo2fzqVP7SOp2zecP4VXYqs3YHTerNzLY2o2PPAi9+7XwPTYQTz/21DGkxtRx28Xge/4ixtxB8D3aCf0XhyEG39OjGHLrwfcwnBbhN36NgXcnnIeTcPZiL1wUUfj20ffq8Rh/j+Ar+C5kAebx+k2+N/XEjc/SZtvJr+qnCCCAAAIIIIAAAggggAACCCCQC4EuBd+4rEF9Zu9l/B3ALG43Zr1eXeKgmiE73RFI7SOp2zX3oprdG8caZ+xO3P+DR2Gr9+pWs3ibr1+/nTqGcSE39b7WwTfO6I1RuDmzt3l7ypm+9fFP+l7wFXwF30lniJ8hgAACCCCAAAIIIIAAAggggEBnCXQj+F5dvmA0hDZmse5uD2bAjmJ9ef/2yzukRtDU7Ub3MIQiasdoPZjFPG6Gb/WYcjzVsg3xa3P93sHtasZw9cDEr6ljSI2747ZrG3zP46zf1/HvTJ2Ei9oSD+WQyvsul3uYIvomogmCr+Ar+KaeLbZDAAEEEEAAAQQQQAABBBBAAIFOEVh68B2zJMNwSYMKVRmEy2UO4n2vwlZzjd/4PM37qoe3+JoaQVO3u/rStWUadrfDnbv3xs7yvdP7VyPw3gu9XnMN3zEcrr7gtfekjmFcyE2670UMt9ddYrwds6TDYLmH+vOXSz/cfjmH+JypF8FX8BV8U88W2yGAAAIIIIAAAggggAACCCCAQKcILD34jqFxNfhe3ShuU58dO4vZvfFVUiNo6nbNPa8vSxFjb3HtHYT93qPwslrfN4bgy79EV83wDeW6xs0lLW4RuVPHUI+vbb9vO8O3WsP3/KhJrrpdre87XQCunuWmr4Kv4Cv43nSW+DkCCCCAAAIIIIAAAggggAACCHSSQDeCb8slHQYki3Vwd8ulDoaB9HaYUyNo6naT9mbSOr7D8QzZxDV/h/fHZ+74DN+NjTBt8C3/aFsZdc3w7c+kPR4fH4f69bvvVzTqThpXvz8bmLN6nklvENf9rM2bT5ttr3s99yOAAAIIIIAAAggggAACCCCAQF4EuhF8R5mlzPAtH1HG0NEIOvpcbW+l9pHU7ca9/nCW73CZhqszfB+HrWI2b5wFPFjDeHfMH3nr+AzfMtY+DGcnh+H0wV44f/0w9AfLNpQ/2wnnJ3vh20bcZkDr8nY5m7fY7sVeuAi3m91rSQfBdyblfFaxNz7PNJc2bz5ttp1mXzwGAQQQQAABBBBAAAEEEEAAAQS6RyDL4Fus+xv/YFkZQi8D6i3iZ3VkUvtI6nbV81Zf46zeIlDHeBv3d7B8w9XgezB4yOiSDlXcvhxz9Qfgqhdo8TV1DG2XcRhuvxPOi0hbBt+z1yeh+INrI+v01oPvIOg+iHE3ru/bnOEbn294//B10pd3SMVjSYcVnf07y1g7i+dKFbK+3a9vDsPp6Vn9rrHfx23iti4IIIAAAggggAACCCCAAAIIILBeBJYffMslGX5ork175fZ2+Edv8AfOrgu7lyH4XrhcArfl4UyNoKnbXffy+73tch9H1usNIQbhyGL4B+oGwfdybOXPy/Db8SUdihm9O8OZu+EwxOgbLzH8nlbr9B7thH4xw7cxg/fyj7417t9ID7zNKHzd8WjeL/gKvguZDdwUL+X2xz8/FyE3vglNusbYG7d1QQABBBBAAAEEEEAAAQQQQACB9SKw/ODbLd6pITd1u/mOruPB9xZhthlqZ3U79XgIvoJvZ4NvqsS2QwABBBBAAAEEEEAAAQQQQACB9SQg+I4e99SQm7rd6LN361bqGGYVW7vwPKlHQPAVfAXf1LPFdggggAACCCCAAAIIIIAAAggg0CkCgu/o4UiNoKnbjT57t26ljqELoXZW+5B6BARfwVfwTT1bbIcAAggggAACCCCAAAIIIIAAAp0iIPiOHo7UCJq63eizd+tW6hhmFVu78DypR0DwFXwF39SzxXYIIIAAAggggAACCCCAAAIIINApAoLv6OFIjaCp240+e7dupY6hC6F2VvuQegQEX8FX8E09W2yHAAIIIIAAAggggAACCCCAAAKdIjDL4Htx0amhtd6ZuP+pETRul/N424y1v7kZZhVcl/o8m5vJTgi+gq/gm3y62BABBBBAAAEEEEAAAQQQQAABBLpEYFbB9/Dth/Dh4+dsI2gMoHH/4zhSLjmPt+1Yv/zyy0oE3ziO1IvgK/gKvqlni+0QQAABBBBAAAEEEEAAAQQQQKBTBGYVfM/OzotYGme+5nqNETeOI+WS+3jbjPXi06dQRN9cZ/pubhb7H8eRehF8BV/BN/VssR0CCCCAAAIIIIAAAggggAACCHSKwKyCb6cGZWcQuCUBwVfwFXxveRJ5OAIIIIAAAggggAACCCCAAAIILIeA4Lsc7l612wQEX8FX8O32OWrvEEAAAQQQQAABBBBAAAEEEEDgGgKC7zVg3L3WBARfwVfwXeu3AINHAAEEEEAAAQQQQAABBBBAIF8Cgm++x86ez4+A4Cv4Cr7zO788MwIIIIAAAggggAACCCCAAAIIzJGA4DtHuJ46WwKCr+Ar+GZ7+tpxBBBAAAEEEEAAAQQQQAABBNabgOC73sff6McTEHwFX8F3/LnhXgQQQAABBBBAAAEEEEAAAQQQ6DgBwbfjB8juLYWA4Cv4Cr5LOfW8KAIIIIAAAggggAACCCCAAAII3JaA4Htbgh6/igQEX8FX8F3FM9uYEEAAAQQQQAABBBBAAAEEEFgDAoLvGhxkQ2xNQPAVfAXf1qeNByCAAAIIIIAAAggggAACCCCAQBcICL5dOAr2oWsEBF/BV/Dt2llpfxBAAAEEEEAAAQQQQAABBBBAIImA4JuEyUZrRkDwFXwF3zU76Q0XAQQQQAABBBBAAAEEEEAAgVUhIPiuypE0jlkSEHwF34UE3z8+9IMrBhzgAAc4wAEOcIADHOAABzjAAQ7M0oHf3/8V4vXtu8/h6I9P4eDtn2H/6GP47eBdePPb7+E//zvUIzSZtXNA8BV8FxJ8v337Flwx4AAHOMABDnCAAxzgAAc4wAEOcGCWDvz9998hXr9+/Rq+fPlSNI7Pnz+H4+Pj8PHjx/Du3Ts9QpNZOwcEX8FX8PXGt3ZvfLP85cJz+WWVAxzgAAc4wAEOcIADHODA8hwQfJfHnvfdZS/4Cr6Cr+Ar+HKAAxzgAAc4wAEOcIADHOAAB7J0QPDtbnQUhJd3bARfwVfw9aGe5Ye6D47lfXBgjz0HOMABDnCAAxzgAAc40BUHBF8udsXFLu2H4Cv4Cr6Cr+DLAQ5wgAMc4AAHOMABDnCAAxzI0gHBV/DtUmjtyr6sQ/D9P0kGV1vMOTJRAAAAAElFTkSuQmCC;" vertex="1" parent="1">
                    <mxGeometry x="-300" y="130" width="1404" height="469" as="geometry"/>
                </mxCell>
                <mxCell id="4" value="&lt;font style=&quot;font-size: 24px&quot;&gt;树状目录&lt;/font&gt;" style="rounded=0;whiteSpace=wrap;html=1;" vertex="1" parent="1">
                    <mxGeometry x="-310" y="210" width="110" height="360" as="geometry"/>
                </mxCell>
                <mxCell id="5" value="&lt;font style=&quot;font-size: 15px&quot;&gt;条目管理&lt;/font&gt;" style="rounded=0;whiteSpace=wrap;html=1;fontSize=24;" vertex="1" parent="1">
                    <mxGeometry x="-210" y="130" width="70" height="50" as="geometry"/>
                </mxCell>
                <mxCell id="6" value="&lt;font style=&quot;font-size: 15px&quot;&gt;批量挂接&lt;/font&gt;" style="rounded=0;whiteSpace=wrap;html=1;fontSize=24;" vertex="1" parent="1">
                    <mxGeometry x="-120" y="130" width="70" height="50" as="geometry"/>
                </mxCell>
                <mxCell id="8" value="&lt;font style=&quot;font-size: 15px&quot;&gt;批量删除&lt;/font&gt;" style="rounded=0;whiteSpace=wrap;html=1;fontSize=24;" vertex="1" parent="1">
                    <mxGeometry x="-40" y="130" width="70" height="50" as="geometry"/>
                </mxCell>
                <mxCell id="9" value="高级检索" style="rounded=0;whiteSpace=wrap;html=1;fontSize=15;" vertex="1" parent="1">
                    <mxGeometry x="1060" y="130" width="120" height="40" as="geometry"/>
                </mxCell>
            </root>
        </mxGraphModel>
    </diagram>
</mxfile>